STARTFONT 2.1
COMMENT $XFree86$
COMMENT ISO10646-1 extension by Markus Kuhn <mkuhn@acm.org>, 2001-03-20
COMMENT  (c) Copyright Bigelow & Holmes 1986, 1985. Lucida is a registered
COMMENT  trademark of Bigelow & Holmes. See LEGAL NOTICE file for terms 
COMMENT  of the license. 
COMMENT GRID 0012 0012 0200 0200
FONT -B&H-Lucida-Bold-R-Normal-Sans-12-120-75-75-P-79-ISO10646-1
SIZE 12 72 72
FONTBOUNDINGBOX 16 20 0 -5
STARTPROPERTIES 22
COMMENT Begin LogicalFontDescription
FONTNAME_REGISTRY ""
FOUNDRY "B&H"
FAMILY_NAME "Lucida"
WEIGHT_NAME "Bold"
SLANT "R"
SETWIDTH_NAME "Normal"
ADD_STYLE_NAME "Sans"
PIXEL_SIZE 12
POINT_SIZE 120
RESOLUTION_X 75
RESOLUTION_Y 75
SPACING "P"
AVERAGE_WIDTH 79
CHARSET_REGISTRY "ISO10646"
CHARSET_ENCODING "1"
COMMENT END LogicalFontDescription
FONT_ASCENT 11
FONT_DESCENT 2
DEFAULT_CHAR 0
COPYRIGHT "Copyright Bigelow & Holmes 1986, 1985."
FACE_NAME "Lucida Sans Bold"
X_HEIGHT 7
CAP_HEIGHT 9
ENDPROPERTIES
CHARS 756
STARTCHAR char0
ENCODING 0
SWIDTH 813 0
DWIDTH 10 0
BBX 7 9 2 0
BITMAP
AA
00
82
00
82
00
82
00
AA
ENDCHAR
STARTCHAR space
ENCODING 32
SWIDTH 343 0
DWIDTH 4 0
BBX 1 1 0 0
BITMAP
00
ENDCHAR
STARTCHAR exclam
ENCODING 33
SWIDTH 265 0
DWIDTH 4 0
BBX 2 9 1 0
BITMAP
C0
C0
C0
C0
C0
40
00
C0
C0
ENDCHAR
STARTCHAR quotedbl
ENCODING 34
SWIDTH 530 0
DWIDTH 6 0
BBX 5 4 1 6
BITMAP
D8
D8
90
90
ENDCHAR
STARTCHAR numbersign
ENCODING 35
SWIDTH 687 0
DWIDTH 8 0
BBX 7 9 1 0
BITMAP
6C
6C
FE
6C
6C
FE
6C
6C
6C
ENDCHAR
STARTCHAR dollar
ENCODING 36
SWIDTH 687 0
DWIDTH 8 0
BBX 6 11 1 -1
BITMAP
10
78
D4
D0
F0
78
3C
2C
AC
78
20
ENDCHAR
STARTCHAR percent
ENCODING 37
SWIDTH 898 0
DWIDTH 11 0
BBX 11 9 0 0
BITMAP
7080
D980
DB00
7600
0400
0DC0
1B60
3360
21C0
ENDCHAR
STARTCHAR ampersand
ENCODING 38
SWIDTH 792 0
DWIDTH 10 0
BBX 8 9 2 0
BITMAP
78
CC
CC
68
33
5A
CC
C6
7B
ENDCHAR
STARTCHAR quotesingle
ENCODING 39
SWIDTH 265 0
DWIDTH 3 0
BBX 2 4 1 6
BITMAP
C0
C0
80
80
ENDCHAR
STARTCHAR parenleft
ENCODING 40
SWIDTH 386 0
DWIDTH 5 0
BBX 4 11 1 -1
BITMAP
30
60
60
C0
C0
C0
C0
C0
60
60
30
ENDCHAR
STARTCHAR parenright
ENCODING 41
SWIDTH 386 0
DWIDTH 5 0
BBX 4 11 0 -1
BITMAP
C0
60
60
30
30
30
30
30
60
60
C0
ENDCHAR
STARTCHAR asterisk
ENCODING 42
SWIDTH 464 0
DWIDTH 6 0
BBX 5 5 1 4
BITMAP
20
A8
70
A8
20
ENDCHAR
STARTCHAR plus
ENCODING 43
SWIDTH 687 0
DWIDTH 8 0
BBX 7 7 1 1
BITMAP
10
10
10
FE
10
10
10
ENDCHAR
STARTCHAR comma
ENCODING 44
SWIDTH 343 0
DWIDTH 3 0
BBX 2 4 1 -2
BITMAP
C0
C0
40
80
ENDCHAR
STARTCHAR hyphen
ENCODING 45
SWIDTH 289 0
DWIDTH 4 0
BBX 3 1 1 4
BITMAP
E0
ENDCHAR
STARTCHAR period
ENCODING 46
SWIDTH 343 0
DWIDTH 3 0
BBX 2 2 1 0
BITMAP
C0
C0
ENDCHAR
STARTCHAR slash
ENCODING 47
SWIDTH 596 0
DWIDTH 7 0
BBX 7 11 0 -1
BITMAP
06
06
0C
0C
18
38
30
60
60
C0
C0
ENDCHAR
STARTCHAR zero
ENCODING 48
SWIDTH 687 0
DWIDTH 8 0
BBX 6 9 1 0
BITMAP
78
CC
CC
CC
CC
CC
CC
CC
78
ENDCHAR
STARTCHAR one
ENCODING 49
SWIDTH 687 0
DWIDTH 8 0
BBX 4 9 1 0
BITMAP
30
F0
30
30
30
30
30
30
30
ENDCHAR
STARTCHAR two
ENCODING 50
SWIDTH 687 0
DWIDTH 8 0
BBX 6 9 1 0
BITMAP
78
CC
0C
0C
18
30
60
FC
FC
ENDCHAR
STARTCHAR three
ENCODING 51
SWIDTH 687 0
DWIDTH 8 0
BBX 6 9 1 0
BITMAP
78
CC
0C
0C
38
0C
0C
CC
78
ENDCHAR
STARTCHAR four
ENCODING 52
SWIDTH 687 0
DWIDTH 8 0
BBX 7 9 1 0
BITMAP
0C
1C
2C
4C
8C
FE
FE
0C
0C
ENDCHAR
STARTCHAR five
ENCODING 53
SWIDTH 687 0
DWIDTH 8 0
BBX 6 9 1 0
BITMAP
7C
7C
40
40
78
0C
0C
CC
78
ENDCHAR
STARTCHAR six
ENCODING 54
SWIDTH 687 0
DWIDTH 8 0
BBX 6 9 1 0
BITMAP
78
CC
C0
C0
F8
CC
CC
CC
78
ENDCHAR
STARTCHAR seven
ENCODING 55
SWIDTH 687 0
DWIDTH 8 0
BBX 6 9 1 0
BITMAP
FC
FC
0C
18
18
30
30
60
60
ENDCHAR
STARTCHAR eight
ENCODING 56
SWIDTH 687 0
DWIDTH 8 0
BBX 6 9 1 0
BITMAP
78
CC
CC
EC
78
DC
CC
CC
78
ENDCHAR
STARTCHAR nine
ENCODING 57
SWIDTH 687 0
DWIDTH 8 0
BBX 6 9 1 0
BITMAP
78
CC
CC
CC
7C
0C
0C
CC
78
ENDCHAR
STARTCHAR colon
ENCODING 58
SWIDTH 343 0
DWIDTH 3 0
BBX 2 7 1 0
BITMAP
C0
C0
00
00
00
C0
C0
ENDCHAR
STARTCHAR semicolon
ENCODING 59
SWIDTH 343 0
DWIDTH 3 0
BBX 2 9 1 -2
BITMAP
C0
C0
00
00
00
C0
C0
40
80
ENDCHAR
STARTCHAR less
ENCODING 60
SWIDTH 687 0
DWIDTH 8 0
BBX 6 7 1 1
BITMAP
0C
38
60
C0
60
38
0C
ENDCHAR
STARTCHAR equal
ENCODING 61
SWIDTH 687 0
DWIDTH 8 0
BBX 6 3 1 3
BITMAP
FC
00
FC
ENDCHAR
STARTCHAR greater
ENCODING 62
SWIDTH 687 0
DWIDTH 8 0
BBX 6 7 1 1
BITMAP
C0
70
18
0C
18
70
C0
ENDCHAR
STARTCHAR question
ENCODING 63
SWIDTH 572 0
DWIDTH 7 0
BBX 5 9 1 0
BITMAP
70
98
18
30
60
60
00
60
60
ENDCHAR
STARTCHAR at
ENCODING 64
SWIDTH 833 0
DWIDTH 10 0
BBX 9 9 1 0
BITMAP
3E00
6300
CF00
DB00
DB00
DB00
CD80
6000
3F00
ENDCHAR
STARTCHAR A
ENCODING 65
SWIDTH 773 0
DWIDTH 9 0
BBX 7 9 1 0
BITMAP
18
18
2C
2C
4C
7E
C6
C6
C6
ENDCHAR
STARTCHAR B
ENCODING 66
SWIDTH 669 0
DWIDTH 9 0
BBX 6 9 2 0
BITMAP
F8
CC
CC
C8
F0
C8
CC
CC
F8
ENDCHAR
STARTCHAR C
ENCODING 67
SWIDTH 726 0
DWIDTH 9 0
BBX 7 9 2 0
BITMAP
3C
66
C0
C0
C0
C0
C0
62
3C
ENDCHAR
STARTCHAR D
ENCODING 68
SWIDTH 819 0
DWIDTH 10 0
BBX 7 9 2 0
BITMAP
F8
CC
C6
C6
C6
C6
C6
CC
F8
ENDCHAR
STARTCHAR E
ENCODING 69
SWIDTH 645 0
DWIDTH 8 0
BBX 6 9 2 0
BITMAP
FC
C0
C0
C0
F8
C0
C0
C0
FC
ENDCHAR
STARTCHAR F
ENCODING 70
SWIDTH 602 0
DWIDTH 7 0
BBX 6 9 2 0
BITMAP
FC
C0
C0
C0
F8
C0
C0
C0
C0
ENDCHAR
STARTCHAR G
ENCODING 71
SWIDTH 759 0
DWIDTH 9 0
BBX 7 9 1 0
BITMAP
3C
66
C0
C0
C0
C6
C6
66
3E
ENDCHAR
STARTCHAR H
ENCODING 72
SWIDTH 813 0
DWIDTH 10 0
BBX 7 9 2 0
BITMAP
C6
C6
C6
C6
FE
C6
C6
C6
C6
ENDCHAR
STARTCHAR I
ENCODING 73
SWIDTH 361 0
DWIDTH 5 0
BBX 2 9 2 0
BITMAP
C0
C0
C0
C0
C0
C0
C0
C0
C0
ENDCHAR
STARTCHAR J
ENCODING 74
SWIDTH 501 0
DWIDTH 6 0
BBX 4 10 1 -1
BITMAP
30
30
30
30
30
30
30
30
30
E0
ENDCHAR
STARTCHAR K
ENCODING 75
SWIDTH 753 0
DWIDTH 9 0
BBX 7 9 2 0
BITMAP
C6
CC
C8
D0
F0
D8
DC
CC
C6
ENDCHAR
STARTCHAR L
ENCODING 76
SWIDTH 620 0
DWIDTH 8 0
BBX 6 9 2 0
BITMAP
C0
C0
C0
C0
C0
C0
C0
C0
FC
ENDCHAR
STARTCHAR M
ENCODING 77
SWIDTH 940 0
DWIDTH 12 0
BBX 9 9 2 0
BITMAP
E380
E380
E380
B580
B580
B580
9980
9980
8180
ENDCHAR
STARTCHAR N
ENCODING 78
SWIDTH 783 0
DWIDTH 10 0
BBX 7 9 2 0
BITMAP
E2
E2
B2
B2
BA
9A
8E
8E
86
ENDCHAR
STARTCHAR O
ENCODING 79
SWIDTH 855 0
DWIDTH 11 0
BBX 8 9 2 0
BITMAP
3C
66
C3
C3
C3
C3
C3
66
3C
ENDCHAR
STARTCHAR P
ENCODING 80
SWIDTH 657 0
DWIDTH 8 0
BBX 6 9 2 0
BITMAP
F8
CC
CC
CC
C8
F0
C0
C0
C0
ENDCHAR
STARTCHAR Q
ENCODING 81
SWIDTH 855 0
DWIDTH 11 0
BBX 8 11 2 -2
BITMAP
3C
66
C3
C3
C3
C3
C3
66
3C
06
03
ENDCHAR
STARTCHAR R
ENCODING 82
SWIDTH 734 0
DWIDTH 9 0
BBX 7 9 2 0
BITMAP
F8
CC
CC
C8
F0
D8
D8
CC
CE
ENDCHAR
STARTCHAR S
ENCODING 83
SWIDTH 594 0
DWIDTH 8 0
BBX 6 9 1 0
BITMAP
78
CC
C0
E0
78
1C
0C
CC
78
ENDCHAR
STARTCHAR T
ENCODING 84
SWIDTH 735 0
DWIDTH 9 0
BBX 8 9 1 0
BITMAP
FF
18
18
18
18
18
18
18
18
ENDCHAR
STARTCHAR U
ENCODING 85
SWIDTH 783 0
DWIDTH 10 0
BBX 7 9 2 0
BITMAP
C6
C6
C6
C6
C6
C6
C6
6C
38
ENDCHAR
STARTCHAR V
ENCODING 86
SWIDTH 735 0
DWIDTH 9 0
BBX 8 9 1 0
BITMAP
C3
C3
C3
62
66
34
3C
18
18
ENDCHAR
STARTCHAR W
ENCODING 87
SWIDTH 940 0
DWIDTH 12 0
BBX 10 9 1 0
BITMAP
C0C0
CCC0
CCC0
6D80
6D80
7F80
3300
3300
3300
ENDCHAR
STARTCHAR X
ENCODING 88
SWIDTH 699 0
DWIDTH 9 0
BBX 7 9 1 0
BITMAP
C6
C6
6C
78
38
6C
6C
C6
C6
ENDCHAR
STARTCHAR Y
ENCODING 89
SWIDTH 738 0
DWIDTH 9 0
BBX 8 9 1 0
BITMAP
C3
C3
62
66
34
18
18
18
18
ENDCHAR
STARTCHAR Z
ENCODING 90
SWIDTH 675 0
DWIDTH 8 0
BBX 6 9 1 0
BITMAP
FC
0C
18
38
30
60
60
C0
FC
ENDCHAR
STARTCHAR bracketleft
ENCODING 91
SWIDTH 386 0
DWIDTH 5 0
BBX 4 11 1 -1
BITMAP
F0
C0
C0
C0
C0
C0
C0
C0
C0
C0
F0
ENDCHAR
STARTCHAR backslash
ENCODING 92
SWIDTH 596 0
DWIDTH 7 0
BBX 7 11 0 -1
BITMAP
C0
C0
60
60
30
38
18
0C
0C
06
06
ENDCHAR
STARTCHAR bracketright
ENCODING 93
SWIDTH 386 0
DWIDTH 5 0
BBX 4 11 0 -1
BITMAP
F0
30
30
30
30
30
30
30
30
30
F0
ENDCHAR
STARTCHAR asciicircum
ENCODING 94
SWIDTH 687 0
DWIDTH 8 0
BBX 7 7 1 2
BITMAP
10
38
28
6C
44
C6
82
ENDCHAR
STARTCHAR underscore
ENCODING 95
SWIDTH 500 0
DWIDTH 9 0
BBX 7 1 1 -1
BITMAP
FE
ENDCHAR
STARTCHAR grave
ENCODING 96
SWIDTH 675 0
DWIDTH 8 0
BBX 3 2 2 8
BITMAP
C0
60
ENDCHAR
STARTCHAR a
ENCODING 97
SWIDTH 623 0
DWIDTH 8 0
BBX 7 7 1 0
BITMAP
78
CC
0C
7C
CC
CC
76
ENDCHAR
STARTCHAR b
ENCODING 98
SWIDTH 696 0
DWIDTH 9 0
BBX 6 10 2 0
BITMAP
C0
C0
C0
D8
EC
CC
CC
CC
CC
F8
ENDCHAR
STARTCHAR c
ENCODING 99
SWIDTH 545 0
DWIDTH 7 0
BBX 6 7 1 0
BITMAP
78
CC
C0
C0
C0
C4
78
ENDCHAR
STARTCHAR d
ENCODING 100
SWIDTH 696 0
DWIDTH 8 0
BBX 6 10 1 0
BITMAP
0C
0C
0C
7C
CC
CC
CC
CC
DC
6C
ENDCHAR
STARTCHAR e
ENCODING 101
SWIDTH 614 0
DWIDTH 8 0
BBX 6 7 1 0
BITMAP
78
CC
CC
FC
C0
C4
78
ENDCHAR
STARTCHAR f
ENCODING 102
SWIDTH 461 0
DWIDTH 6 0
BBX 5 10 1 0
BITMAP
38
60
60
F8
60
60
60
60
60
60
ENDCHAR
STARTCHAR g
ENCODING 103
SWIDTH 696 0
DWIDTH 8 0
BBX 6 9 1 -2
BITMAP
7C
CC
CC
CC
DC
6C
0C
CC
78
ENDCHAR
STARTCHAR h
ENCODING 104
SWIDTH 693 0
DWIDTH 9 0
BBX 6 10 2 0
BITMAP
C0
C0
C0
D8
EC
CC
CC
CC
CC
CC
ENDCHAR
STARTCHAR i
ENCODING 105
SWIDTH 361 0
DWIDTH 5 0
BBX 2 10 2 0
BITMAP
C0
C0
00
C0
C0
C0
C0
C0
C0
C0
ENDCHAR
STARTCHAR j
ENCODING 106
SWIDTH 361 0
DWIDTH 5 0
BBX 4 12 0 -2
BITMAP
30
30
00
30
30
30
30
30
30
30
30
E0
ENDCHAR
STARTCHAR k
ENCODING 107
SWIDTH 681 0
DWIDTH 8 0
BBX 6 10 2 0
BITMAP
C0
C0
C0
CC
C8
D0
F0
D8
CC
CC
ENDCHAR
STARTCHAR l
ENCODING 108
SWIDTH 361 0
DWIDTH 5 0
BBX 2 10 2 0
BITMAP
C0
C0
C0
C0
C0
C0
C0
C0
C0
C0
ENDCHAR
STARTCHAR m
ENCODING 109
SWIDTH 1006 0
DWIDTH 13 0
BBX 10 7 2 0
BITMAP
D980
EEC0
CCC0
CCC0
CCC0
CCC0
CCC0
ENDCHAR
STARTCHAR n
ENCODING 110
SWIDTH 693 0
DWIDTH 9 0
BBX 6 7 2 0
BITMAP
D8
EC
CC
CC
CC
CC
CC
ENDCHAR
STARTCHAR o
ENCODING 111
SWIDTH 675 0
DWIDTH 8 0
BBX 6 7 1 0
BITMAP
78
CC
CC
CC
CC
CC
78
ENDCHAR
STARTCHAR p
ENCODING 112
SWIDTH 696 0
DWIDTH 9 0
BBX 6 9 2 -2
BITMAP
D8
EC
CC
CC
CC
CC
F8
C0
C0
ENDCHAR
STARTCHAR q
ENCODING 113
SWIDTH 696 0
DWIDTH 8 0
BBX 6 9 1 -2
BITMAP
7C
CC
CC
CC
CC
DC
6C
0C
0C
ENDCHAR
STARTCHAR r
ENCODING 114
SWIDTH 500 0
DWIDTH 6 0
BBX 5 7 1 0
BITMAP
D8
D8
E0
C0
C0
C0
C0
ENDCHAR
STARTCHAR s
ENCODING 115
SWIDTH 622 0
DWIDTH 8 0
BBX 6 7 1 0
BITMAP
7C
C0
E0
78
1C
0C
F8
ENDCHAR
STARTCHAR t
ENCODING 116
SWIDTH 436 0
DWIDTH 5 0
BBX 5 9 0 0
BITMAP
20
60
F8
60
60
60
60
60
38
ENDCHAR
STARTCHAR u
ENCODING 117
SWIDTH 693 0
DWIDTH 9 0
BBX 6 7 2 0
BITMAP
CC
CC
CC
CC
CC
DC
6C
ENDCHAR
STARTCHAR v
ENCODING 118
SWIDTH 663 0
DWIDTH 8 0
BBX 6 7 1 0
BITMAP
CC
CC
CC
68
68
30
30
ENDCHAR
STARTCHAR w
ENCODING 119
SWIDTH 885 0
DWIDTH 11 0
BBX 10 7 1 0
BITMAP
C0C0
CCC0
6D80
6D80
7F80
3300
3300
ENDCHAR
STARTCHAR x
ENCODING 120
SWIDTH 568 0
DWIDTH 7 0
BBX 6 7 1 0
BITMAP
CC
CC
68
30
58
CC
CC
ENDCHAR
STARTCHAR y
ENCODING 121
SWIDTH 645 0
DWIDTH 8 0
BBX 7 9 1 -2
BITMAP
C6
C6
C4
6C
68
38
30
60
60
ENDCHAR
STARTCHAR z
ENCODING 122
SWIDTH 608 0
DWIDTH 7 0
BBX 5 7 1 0
BITMAP
F8
18
30
70
60
C0
F8
ENDCHAR
STARTCHAR braceleft
ENCODING 123
SWIDTH 386 0
DWIDTH 5 0
BBX 4 11 1 -1
BITMAP
70
C0
C0
60
20
C0
20
60
C0
C0
70
ENDCHAR
STARTCHAR bar
ENCODING 124
SWIDTH 265 0
DWIDTH 4 0
BBX 2 11 1 -1
BITMAP
C0
C0
C0
C0
C0
C0
C0
C0
C0
C0
C0
ENDCHAR
STARTCHAR braceright
ENCODING 125
SWIDTH 386 0
DWIDTH 5 0
BBX 4 11 0 -1
BITMAP
E0
30
30
60
40
30
40
60
30
30
E0
ENDCHAR
STARTCHAR asciitilde
ENCODING 126
SWIDTH 687 0
DWIDTH 8 0
BBX 6 2 1 4
BITMAP
74
B8
ENDCHAR
STARTCHAR space
ENCODING 160
SWIDTH 343 0
DWIDTH 4 0
BBX 1 1 0 0
BITMAP
00
ENDCHAR
STARTCHAR exclamdown
ENCODING 161
SWIDTH 265 0
DWIDTH 4 0
BBX 2 9 1 -2
BITMAP
C0
C0
00
80
C0
C0
C0
C0
C0
ENDCHAR
STARTCHAR cent
ENCODING 162
SWIDTH 687 0
DWIDTH 8 0
BBX 6 9 1 0
BITMAP
10
78
CC
C0
C0
C0
CC
78
10
ENDCHAR
STARTCHAR sterling
ENCODING 163
SWIDTH 687 0
DWIDTH 8 0
BBX 6 9 1 0
BITMAP
38
64
60
60
F8
60
60
60
FC
ENDCHAR
STARTCHAR currency
ENCODING 164
SWIDTH 687 0
DWIDTH 8 0
BBX 8 9 0 0
BITMAP
81
C3
3C
66
66
66
3C
C3
81
ENDCHAR
STARTCHAR yen
ENCODING 165
SWIDTH 687 0
DWIDTH 8 0
BBX 8 9 0 0
BITMAP
C3
C3
66
34
7E
18
7E
18
18
ENDCHAR
STARTCHAR brokenbar
ENCODING 166
SWIDTH 265 0
DWIDTH 4 0
BBX 2 11 1 -1
BITMAP
C0
C0
C0
C0
00
00
00
C0
C0
C0
C0
ENDCHAR
STARTCHAR section
ENCODING 167
SWIDTH 693 0
DWIDTH 8 0
BBX 6 10 1 -1
BITMAP
78
CC
E0
78
9C
E4
78
1C
CC
78
ENDCHAR
STARTCHAR dieresis
ENCODING 168
SWIDTH 675 0
DWIDTH 8 0
BBX 4 2 2 8
BITMAP
90
90
ENDCHAR
STARTCHAR copyright
ENCODING 169
SWIDTH 825 0
DWIDTH 10 0
BBX 9 9 1 0
BITMAP
3E00
4100
9C80
B480
B080
B080
9C80
4100
3E00
ENDCHAR
STARTCHAR ordfeminine
ENCODING 170
SWIDTH 536 0
DWIDTH 7 0
BBX 6 5 1 4
BITMAP
70
18
78
D8
6C
ENDCHAR
STARTCHAR guillemotleft
ENCODING 171
SWIDTH 614 0
DWIDTH 8 0
BBX 7 5 0 1
BITMAP
36
6C
D8
6C
36
ENDCHAR
STARTCHAR logicalnot
ENCODING 172
SWIDTH 687 0
DWIDTH 8 0
BBX 7 3 1 2
BITMAP
FE
02
02
ENDCHAR
STARTCHAR hyphen
ENCODING 173
SWIDTH 289 0
DWIDTH 4 0
BBX 3 1 1 4
BITMAP
E0
ENDCHAR
STARTCHAR registered
ENCODING 174
SWIDTH 687 0
DWIDTH 8 0
BBX 7 7 1 2
BITMAP
38
44
BA
B2
AA
44
38
ENDCHAR
STARTCHAR macron
ENCODING 175
SWIDTH 675 0
DWIDTH 8 0
BBX 4 2 2 8
BITMAP
F0
F0
ENDCHAR
STARTCHAR degree
ENCODING 176
SWIDTH 241 0
DWIDTH 3 0
BBX 4 3 0 6
BITMAP
60
90
60
ENDCHAR
STARTCHAR plusminus
ENCODING 177
SWIDTH 687 0
DWIDTH 8 0
BBX 7 7 1 1
BITMAP
10
10
FE
10
10
00
FE
ENDCHAR
STARTCHAR twosuperior
ENCODING 178
SWIDTH 536 0
DWIDTH 7 0
BBX 5 5 1 4
BITMAP
F0
18
30
C0
F8
ENDCHAR
STARTCHAR threesuperior
ENCODING 179
SWIDTH 536 0
DWIDTH 7 0
BBX 5 5 1 4
BITMAP
F0
18
70
18
F0
ENDCHAR
STARTCHAR acute
ENCODING 180
SWIDTH 675 0
DWIDTH 8 0
BBX 3 2 3 8
BITMAP
60
C0
ENDCHAR
STARTCHAR mu
ENCODING 181
SWIDTH 699 0
DWIDTH 9 0
BBX 6 9 2 -2
BITMAP
CC
CC
CC
CC
CC
DC
EC
C0
C0
ENDCHAR
STARTCHAR paragraph
ENCODING 182
SWIDTH 693 0
DWIDTH 8 0
BBX 6 10 1 -1
BITMAP
7C
F4
F4
F4
74
14
14
14
14
14
ENDCHAR
STARTCHAR periodcentered
ENCODING 183
SWIDTH 343 0
DWIDTH 8 0
BBX 2 2 3 3
BITMAP
C0
C0
ENDCHAR
STARTCHAR cedilla
ENCODING 184
SWIDTH 675 0
DWIDTH 8 0
BBX 4 2 1 -2
BITMAP
30
E0
ENDCHAR
STARTCHAR onesuperior
ENCODING 185
SWIDTH 536 0
DWIDTH 7 0
BBX 4 5 1 4
BITMAP
30
F0
30
30
30
ENDCHAR
STARTCHAR ordmasculine
ENCODING 186
SWIDTH 536 0
DWIDTH 6 0
BBX 5 5 1 4
BITMAP
70
D8
D8
D8
70
ENDCHAR
STARTCHAR guillemotright
ENCODING 187
SWIDTH 614 0
DWIDTH 8 0
BBX 7 5 1 1
BITMAP
D8
6C
36
6C
D8
ENDCHAR
STARTCHAR onequarter
ENCODING 188
SWIDTH 1066 0
DWIDTH 13 0
BBX 12 9 1 0
BITMAP
E0C0
6180
6300
6600
6CE0
1960
3260
63F0
C060
ENDCHAR
STARTCHAR onehalf
ENCODING 189
SWIDTH 1066 0
DWIDTH 13 0
BBX 12 9 1 0
BITMAP
E0C0
6180
6300
6600
64E0
0D30
1870
30C0
61F0
ENDCHAR
STARTCHAR threequarters
ENCODING 190
SWIDTH 1120 0
DWIDTH 14 0
BBX 14 9 0 0
BITMAP
F030
1860
70C0
1980
F338
0658
0C98
18FC
3018
ENDCHAR
STARTCHAR questiondown
ENCODING 191
SWIDTH 572 0
DWIDTH 7 0
BBX 5 9 2 -2
BITMAP
30
30
00
30
30
60
C0
C8
70
ENDCHAR
STARTCHAR Agrave
ENCODING 192
SWIDTH 773 0
DWIDTH 9 0
BBX 7 11 1 0
BITMAP
30
18
00
18
2C
2C
4C
7E
C6
C6
C6
ENDCHAR
STARTCHAR Aacute
ENCODING 193
SWIDTH 773 0
DWIDTH 9 0
BBX 7 11 1 0
BITMAP
0C
18
00
18
2C
2C
4C
7E
C6
C6
C6
ENDCHAR
STARTCHAR Acircumflex
ENCODING 194
SWIDTH 773 0
DWIDTH 9 0
BBX 7 11 1 0
BITMAP
18
2C
00
18
2C
2C
4C
7E
C6
C6
C6
ENDCHAR
STARTCHAR Atilde
ENCODING 195
SWIDTH 773 0
DWIDTH 9 0
BBX 7 11 1 0
BITMAP
34
58
00
18
2C
2C
4C
7E
C6
C6
C6
ENDCHAR
STARTCHAR Adieresis
ENCODING 196
SWIDTH 773 0
DWIDTH 9 0
BBX 7 11 1 0
BITMAP
24
24
00
18
2C
2C
4C
7E
C6
C6
C6
ENDCHAR
STARTCHAR Aring
ENCODING 197
SWIDTH 773 0
DWIDTH 9 0
BBX 7 11 1 0
BITMAP
18
2C
18
18
2C
2C
4C
7E
C6
C6
C6
ENDCHAR
STARTCHAR AE
ENCODING 198
SWIDTH 997 0
DWIDTH 12 0
BBX 10 9 1 0
BITMAP
0FC0
1600
1600
2600
6780
7E00
C600
C600
C7C0
ENDCHAR
STARTCHAR Ccedilla
ENCODING 199
SWIDTH 726 0
DWIDTH 9 0
BBX 7 11 2 -2
BITMAP
3C
66
C0
C0
C0
C0
C0
62
3C
18
70
ENDCHAR
STARTCHAR Egrave
ENCODING 200
SWIDTH 645 0
DWIDTH 8 0
BBX 6 11 2 0
BITMAP
60
30
00
FC
C0
C0
F8
C0
C0
C0
FC
ENDCHAR
STARTCHAR Eacute
ENCODING 201
SWIDTH 645 0
DWIDTH 8 0
BBX 6 11 2 0
BITMAP
18
30
00
FC
C0
C0
F8
C0
C0
C0
FC
ENDCHAR
STARTCHAR Ecircumflex
ENCODING 202
SWIDTH 645 0
DWIDTH 8 0
BBX 6 11 2 0
BITMAP
30
58
00
FC
C0
C0
F8
C0
C0
C0
FC
ENDCHAR
STARTCHAR Edieresis
ENCODING 203
SWIDTH 645 0
DWIDTH 8 0
BBX 6 11 2 0
BITMAP
48
48
00
FC
C0
C0
F8
C0
C0
C0
FC
ENDCHAR
STARTCHAR Igrave
ENCODING 204
SWIDTH 361 0
DWIDTH 5 0
BBX 3 11 1 0
BITMAP
C0
60
00
60
60
60
60
60
60
60
60
ENDCHAR
STARTCHAR Iacute
ENCODING 205
SWIDTH 361 0
DWIDTH 5 0
BBX 3 11 2 0
BITMAP
60
C0
00
C0
C0
C0
C0
C0
C0
C0
C0
ENDCHAR
STARTCHAR Icircumflex
ENCODING 206
SWIDTH 361 0
DWIDTH 5 0
BBX 4 11 1 0
BITMAP
60
B0
00
60
60
60
60
60
60
60
60
ENDCHAR
STARTCHAR Idieresis
ENCODING 207
SWIDTH 361 0
DWIDTH 5 0
BBX 4 11 1 0
BITMAP
90
90
00
60
60
60
60
60
60
60
60
ENDCHAR
STARTCHAR Eth
ENCODING 208
SWIDTH 819 0
DWIDTH 10 0
BBX 8 9 1 0
BITMAP
7C
66
63
63
FB
63
63
66
7C
ENDCHAR
STARTCHAR Ntilde
ENCODING 209
SWIDTH 783 0
DWIDTH 10 0
BBX 7 11 2 0
BITMAP
34
58
00
C2
E2
F2
B2
9A
9E
8E
86
ENDCHAR
STARTCHAR Ograve
ENCODING 210
SWIDTH 855 0
DWIDTH 11 0
BBX 8 11 2 0
BITMAP
30
18
00
3C
66
C3
C3
C3
C3
66
3C
ENDCHAR
STARTCHAR Oacute
ENCODING 211
SWIDTH 855 0
DWIDTH 11 0
BBX 8 11 2 0
BITMAP
0C
18
00
3C
66
C3
C3
C3
C3
66
3C
ENDCHAR
STARTCHAR Ocircumflex
ENCODING 212
SWIDTH 855 0
DWIDTH 11 0
BBX 8 11 2 0
BITMAP
18
2C
00
3C
66
C3
C3
C3
C3
66
3C
ENDCHAR
STARTCHAR Otilde
ENCODING 213
SWIDTH 855 0
DWIDTH 11 0
BBX 8 11 2 0
BITMAP
1A
2C
00
3C
66
C3
C3
C3
C3
66
3C
ENDCHAR
STARTCHAR Odieresis
ENCODING 214
SWIDTH 855 0
DWIDTH 11 0
BBX 8 11 2 0
BITMAP
24
24
00
3C
66
C3
C3
C3
C3
66
3C
ENDCHAR
STARTCHAR multiply
ENCODING 215
SWIDTH 687 0
DWIDTH 8 0
BBX 7 6 1 1
BITMAP
C6
6C
38
38
6C
C6
ENDCHAR
STARTCHAR Oslash
ENCODING 216
SWIDTH 855 0
DWIDTH 11 0
BBX 8 11 2 -1
BITMAP
01
3D
66
C7
CB
CB
D3
E3
66
BC
80
ENDCHAR
STARTCHAR Ugrave
ENCODING 217
SWIDTH 783 0
DWIDTH 10 0
BBX 7 11 2 0
BITMAP
30
18
00
C6
C6
C6
C6
C6
C6
6C
38
ENDCHAR
STARTCHAR Uacute
ENCODING 218
SWIDTH 783 0
DWIDTH 10 0
BBX 7 11 2 0
BITMAP
18
30
00
C6
C6
C6
C6
C6
C6
6C
38
ENDCHAR
STARTCHAR Ucircumflex
ENCODING 219
SWIDTH 783 0
DWIDTH 10 0
BBX 7 11 2 0
BITMAP
18
2C
00
C6
C6
C6
C6
C6
C6
6C
38
ENDCHAR
STARTCHAR Udieresis
ENCODING 220
SWIDTH 783 0
DWIDTH 10 0
BBX 7 11 2 0
BITMAP
48
48
00
C6
C6
C6
C6
C6
C6
6C
38
ENDCHAR
STARTCHAR Yacute
ENCODING 221
SWIDTH 738 0
DWIDTH 9 0
BBX 8 11 1 0
BITMAP
0C
18
00
C3
C3
66
3C
18
18
18
18
ENDCHAR
STARTCHAR Thorn
ENCODING 222
SWIDTH 657 0
DWIDTH 8 0
BBX 6 9 2 0
BITMAP
C0
C0
F8
CC
CC
CC
F8
C0
C0
ENDCHAR
STARTCHAR germandbls
ENCODING 223
SWIDTH 724 0
DWIDTH 9 0
BBX 6 10 2 0
BITMAP
70
D8
D8
D8
D0
C8
CC
CC
CC
D8
ENDCHAR
STARTCHAR agrave
ENCODING 224
SWIDTH 623 0
DWIDTH 8 0
BBX 7 10 1 0
BITMAP
60
30
00
78
CC
0C
7C
CC
CC
76
ENDCHAR
STARTCHAR aacute
ENCODING 225
SWIDTH 623 0
DWIDTH 8 0
BBX 7 10 1 0
BITMAP
18
30
00
78
CC
0C
7C
CC
CC
76
ENDCHAR
STARTCHAR acircumflex
ENCODING 226
SWIDTH 623 0
DWIDTH 8 0
BBX 7 10 1 0
BITMAP
30
58
00
78
CC
0C
7C
CC
CC
76
ENDCHAR
STARTCHAR atilde
ENCODING 227
SWIDTH 623 0
DWIDTH 8 0
BBX 7 10 1 0
BITMAP
68
B0
00
78
CC
0C
7C
CC
CC
76
ENDCHAR
STARTCHAR adieresis
ENCODING 228
SWIDTH 623 0
DWIDTH 8 0
BBX 7 10 1 0
BITMAP
48
48
00
78
CC
0C
7C
CC
CC
76
ENDCHAR
STARTCHAR aring
ENCODING 229
SWIDTH 623 0
DWIDTH 8 0
BBX 7 11 1 0
BITMAP
30
58
30
00
78
CC
0C
7C
CC
CC
76
ENDCHAR
STARTCHAR ae
ENCODING 230
SWIDTH 913 0
DWIDTH 11 0
BBX 10 7 1 0
BITMAP
7780
CCC0
0CC0
7FC0
CC00
CC40
7780
ENDCHAR
STARTCHAR ccedilla
ENCODING 231
SWIDTH 545 0
DWIDTH 7 0
BBX 6 9 1 -2
BITMAP
78
CC
C0
C0
C0
C4
78
30
E0
ENDCHAR
STARTCHAR egrave
ENCODING 232
SWIDTH 614 0
DWIDTH 8 0
BBX 6 10 1 0
BITMAP
60
30
00
78
CC
CC
FC
C0
C4
78
ENDCHAR
STARTCHAR eacute
ENCODING 233
SWIDTH 614 0
DWIDTH 8 0
BBX 6 10 1 0
BITMAP
18
30
00
78
CC
CC
FC
C0
C4
78
ENDCHAR
STARTCHAR ecircumflex
ENCODING 234
SWIDTH 614 0
DWIDTH 8 0
BBX 6 10 1 0
BITMAP
30
58
00
78
CC
CC
FC
C0
C4
78
ENDCHAR
STARTCHAR edieresis
ENCODING 235
SWIDTH 614 0
DWIDTH 8 0
BBX 6 10 1 0
BITMAP
48
48
00
78
CC
CC
FC
C0
C4
78
ENDCHAR
STARTCHAR igrave
ENCODING 236
SWIDTH 361 0
DWIDTH 5 0
BBX 3 10 1 0
BITMAP
C0
60
00
60
60
60
60
60
60
60
ENDCHAR
STARTCHAR iacute
ENCODING 237
SWIDTH 361 0
DWIDTH 5 0
BBX 3 10 2 0
BITMAP
60
C0
00
C0
C0
C0
C0
C0
C0
C0
ENDCHAR
STARTCHAR icircumflex
ENCODING 238
SWIDTH 361 0
DWIDTH 5 0
BBX 4 10 1 0
BITMAP
60
B0
00
60
60
60
60
60
60
60
ENDCHAR
STARTCHAR idieresis
ENCODING 239
SWIDTH 361 0
DWIDTH 5 0
BBX 4 10 1 0
BITMAP
90
90
00
60
60
60
60
60
60
60
ENDCHAR
STARTCHAR eth
ENCODING 240
SWIDTH 675 0
DWIDTH 8 0
BBX 7 10 1 0
BITMAP
70
1E
78
0C
7C
CC
CC
CC
CC
78
ENDCHAR
STARTCHAR ntilde
ENCODING 241
SWIDTH 693 0
DWIDTH 9 0
BBX 6 10 2 0
BITMAP
34
58
00
D8
EC
CC
CC
CC
CC
CC
ENDCHAR
STARTCHAR ograve
ENCODING 242
SWIDTH 675 0
DWIDTH 8 0
BBX 6 10 1 0
BITMAP
60
30
00
78
CC
CC
CC
CC
CC
78
ENDCHAR
STARTCHAR oacute
ENCODING 243
SWIDTH 675 0
DWIDTH 8 0
BBX 6 10 1 0
BITMAP
18
30
00
78
CC
CC
CC
CC
CC
78
ENDCHAR
STARTCHAR ocircumflex
ENCODING 244
SWIDTH 675 0
DWIDTH 8 0
BBX 6 10 1 0
BITMAP
30
58
00
78
CC
CC
CC
CC
CC
78
ENDCHAR
STARTCHAR otilde
ENCODING 245
SWIDTH 675 0
DWIDTH 8 0
BBX 6 10 1 0
BITMAP
34
58
00
78
CC
CC
CC
CC
CC
78
ENDCHAR
STARTCHAR odieresis
ENCODING 246
SWIDTH 675 0
DWIDTH 8 0
BBX 6 10 1 0
BITMAP
48
48
00
78
CC
CC
CC
CC
CC
78
ENDCHAR
STARTCHAR divide
ENCODING 247
SWIDTH 687 0
DWIDTH 8 0
BBX 7 7 1 1
BITMAP
10
10
00
FE
00
10
10
ENDCHAR
STARTCHAR oslash
ENCODING 248
SWIDTH 675 0
DWIDTH 8 0
BBX 6 9 1 -1
BITMAP
04
7C
CC
DC
CC
EC
CC
F8
80
ENDCHAR
STARTCHAR ugrave
ENCODING 249
SWIDTH 693 0
DWIDTH 9 0
BBX 6 10 2 0
BITMAP
60
30
00
CC
CC
CC
CC
CC
DC
6C
ENDCHAR
STARTCHAR uacute
ENCODING 250
SWIDTH 693 0
DWIDTH 9 0
BBX 6 10 2 0
BITMAP
18
30
00
CC
CC
CC
CC
CC
DC
6C
ENDCHAR
STARTCHAR ucircumflex
ENCODING 251
SWIDTH 693 0
DWIDTH 9 0
BBX 6 10 2 0
BITMAP
30
58
00
CC
CC
CC
CC
CC
DC
6C
ENDCHAR
STARTCHAR udieresis
ENCODING 252
SWIDTH 693 0
DWIDTH 9 0
BBX 6 10 2 0
BITMAP
48
48
00
CC
CC
CC
CC
CC
DC
6C
ENDCHAR
STARTCHAR yacute
ENCODING 253
SWIDTH 645 0
DWIDTH 8 0
BBX 7 12 1 -2
BITMAP
18
30
00
C6
C6
C4
6C
68
38
30
60
60
ENDCHAR
STARTCHAR thorn
ENCODING 254
SWIDTH 696 0
DWIDTH 9 0
BBX 6 11 2 -2
BITMAP
C0
C0
D8
EC
CC
CC
CC
CC
F8
C0
C0
ENDCHAR
STARTCHAR ydieresis
ENCODING 255
SWIDTH 645 0
DWIDTH 8 0
BBX 7 12 1 -2
BITMAP
24
24
00
C6
C6
C4
6C
68
38
30
60
60
ENDCHAR
STARTCHAR Amacron
ENCODING 256
SWIDTH 773 0
DWIDTH 9 0
BBX 7 12 1 0
BITMAP
3C
3C
00
18
18
2C
2C
4C
7E
C6
C6
C6
ENDCHAR
STARTCHAR amacron
ENCODING 257
SWIDTH 623 0
DWIDTH 8 0
BBX 7 10 1 0
BITMAP
78
78
00
78
CC
0C
7C
CC
CC
76
ENDCHAR
STARTCHAR Abreve
ENCODING 258
SWIDTH 773 0
DWIDTH 9 0
BBX 7 12 1 0
BITMAP
44
38
00
18
18
2C
2C
4C
7E
C6
C6
C6
ENDCHAR
STARTCHAR abreve
ENCODING 259
SWIDTH 623 0
DWIDTH 8 0
BBX 7 10 1 0
BITMAP
44
38
00
78
CC
0C
7C
CC
CC
76
ENDCHAR
STARTCHAR Aogonek
ENCODING 260
SWIDTH 773 0
DWIDTH 9 0
BBX 7 11 1 -2
BITMAP
18
18
2C
2C
4C
7E
C6
C6
C6
30
1C
ENDCHAR
STARTCHAR aogonek
ENCODING 261
SWIDTH 623 0
DWIDTH 8 0
BBX 7 9 1 -2
BITMAP
78
CC
0C
7C
CC
CC
76
30
1C
ENDCHAR
STARTCHAR Cacute
ENCODING 262
SWIDTH 726 0
DWIDTH 9 0
BBX 7 12 2 0
BITMAP
18
30
00
3C
66
C0
C0
C0
C0
C0
62
3C
ENDCHAR
STARTCHAR cacute
ENCODING 263
SWIDTH 545 0
DWIDTH 7 0
BBX 6 10 1 0
BITMAP
18
30
00
78
CC
C0
C0
C0
C4
78
ENDCHAR
STARTCHAR Ccircumflex
ENCODING 264
SWIDTH 726 0
DWIDTH 9 0
BBX 7 12 2 0
BITMAP
30
58
00
3C
66
C0
C0
C0
C0
C0
62
3C
ENDCHAR
STARTCHAR ccircumflex
ENCODING 265
SWIDTH 545 0
DWIDTH 7 0
BBX 6 10 1 0
BITMAP
30
58
00
78
CC
C0
C0
C0
C4
78
ENDCHAR
STARTCHAR Cdotaccent
ENCODING 266
SWIDTH 726 0
DWIDTH 9 0
BBX 7 12 2 0
BITMAP
30
30
00
3C
66
C0
C0
C0
C0
C0
62
3C
ENDCHAR
STARTCHAR cdotaccent
ENCODING 267
SWIDTH 545 0
DWIDTH 7 0
BBX 6 10 1 0
BITMAP
30
30
00
78
CC
C0
C0
C0
C4
78
ENDCHAR
STARTCHAR Ccaron
ENCODING 268
SWIDTH 726 0
DWIDTH 9 0
BBX 7 12 2 0
BITMAP
58
30
00
3C
66
C0
C0
C0
C0
C0
62
3C
ENDCHAR
STARTCHAR ccaron
ENCODING 269
SWIDTH 545 0
DWIDTH 7 0
BBX 6 10 1 0
BITMAP
58
30
00
78
CC
C0
C0
C0
C4
78
ENDCHAR
STARTCHAR Dcaron
ENCODING 270
SWIDTH 819 0
DWIDTH 10 0
BBX 7 12 2 0
BITMAP
58
30
00
F8
CC
C6
C6
C6
C6
C6
CC
F8
ENDCHAR
STARTCHAR dcaron
ENCODING 271
SWIDTH 926 0
DWIDTH 11 0
BBX 10 10 1 0
BITMAP
0CC0
0CC0
0C40
7C80
CC00
CC00
CC00
CC00
DC00
6C00
ENDCHAR
STARTCHAR Dcroat
ENCODING 272
SWIDTH 819 0
DWIDTH 10 0
BBX 8 9 1 0
BITMAP
7C
66
63
63
FB
63
63
66
7C
ENDCHAR
STARTCHAR dcroat
ENCODING 273
SWIDTH 696 0
DWIDTH 8 0
BBX 7 10 1 0
BITMAP
0C
3E
0C
7C
CC
CC
CC
CC
DC
6C
ENDCHAR
STARTCHAR Emacron
ENCODING 274
SWIDTH 645 0
DWIDTH 8 0
BBX 6 12 2 0
BITMAP
F0
F0
00
FC
C0
C0
C0
F8
C0
C0
C0
FC
ENDCHAR
STARTCHAR emacron
ENCODING 275
SWIDTH 614 0
DWIDTH 8 0
BBX 6 10 1 0
BITMAP
78
78
00
78
CC
CC
FC
C0
C4
78
ENDCHAR
STARTCHAR Ebreve
ENCODING 276
SWIDTH 645 0
DWIDTH 8 0
BBX 6 12 2 0
BITMAP
88
70
00
FC
C0
C0
C0
F8
C0
C0
C0
FC
ENDCHAR
STARTCHAR ebreve
ENCODING 277
SWIDTH 614 0
DWIDTH 8 0
BBX 6 10 1 0
BITMAP
44
38
00
78
CC
CC
FC
C0
C4
78
ENDCHAR
STARTCHAR Edotaccent
ENCODING 278
SWIDTH 645 0
DWIDTH 8 0
BBX 6 12 2 0
BITMAP
60
60
00
FC
C0
C0
C0
F8
C0
C0
C0
FC
ENDCHAR
STARTCHAR edotaccent
ENCODING 279
SWIDTH 614 0
DWIDTH 8 0
BBX 6 10 1 0
BITMAP
30
30
00
78
CC
CC
FC
C0
C4
78
ENDCHAR
STARTCHAR Eogonek
ENCODING 280
SWIDTH 645 0
DWIDTH 8 0
BBX 6 11 2 -2
BITMAP
FC
C0
C0
C0
F8
C0
C0
C0
FC
60
38
ENDCHAR
STARTCHAR eogonek
ENCODING 281
SWIDTH 614 0
DWIDTH 8 0
BBX 6 9 1 -2
BITMAP
78
CC
CC
FC
C0
C4
78
30
1C
ENDCHAR
STARTCHAR Ecaron
ENCODING 282
SWIDTH 645 0
DWIDTH 8 0
BBX 6 12 2 0
BITMAP
B0
60
00
FC
C0
C0
C0
F8
C0
C0
C0
FC
ENDCHAR
STARTCHAR ecaron
ENCODING 283
SWIDTH 614 0
DWIDTH 8 0
BBX 6 10 1 0
BITMAP
58
30
00
78
CC
CC
FC
C0
C4
78
ENDCHAR
STARTCHAR Gcircumflex
ENCODING 284
SWIDTH 759 0
DWIDTH 9 0
BBX 7 12 1 0
BITMAP
30
58
00
3C
66
C0
C0
C0
C6
C6
66
3E
ENDCHAR
STARTCHAR gcircumflex
ENCODING 285
SWIDTH 696 0
DWIDTH 8 0
BBX 6 12 1 -2
BITMAP
30
58
00
7C
CC
CC
CC
DC
6C
0C
CC
78
ENDCHAR
STARTCHAR Gbreve
ENCODING 286
SWIDTH 759 0
DWIDTH 9 0
BBX 7 12 1 0
BITMAP
44
38
00
3C
66
C0
C0
C0
C6
C6
66
3E
ENDCHAR
STARTCHAR gbreve
ENCODING 287
SWIDTH 696 0
DWIDTH 8 0
BBX 6 12 1 -2
BITMAP
44
38
00
7C
CC
CC
CC
DC
6C
0C
CC
78
ENDCHAR
STARTCHAR Gdotaccent
ENCODING 288
SWIDTH 759 0
DWIDTH 9 0
BBX 7 12 1 0
BITMAP
30
30
00
3C
66
C0
C0
C0
C6
C6
66
3E
ENDCHAR
STARTCHAR gdotaccent
ENCODING 289
SWIDTH 696 0
DWIDTH 8 0
BBX 6 12 1 -2
BITMAP
30
30
00
7C
CC
CC
CC
DC
6C
0C
CC
78
ENDCHAR
STARTCHAR Gcommaaccent
ENCODING 290
SWIDTH 759 0
DWIDTH 9 0
BBX 7 14 1 -5
BITMAP
3C
66
C0
C0
C0
C6
C6
66
3E
00
18
18
08
10
ENDCHAR
STARTCHAR gcommaaccent
ENCODING 291
SWIDTH 696 0
DWIDTH 8 0
BBX 6 14 1 -2
BITMAP
10
20
30
30
00
7C
CC
CC
CC
DC
6C
0C
CC
78
ENDCHAR
STARTCHAR Hcircumflex
ENCODING 292
SWIDTH 813 0
DWIDTH 10 0
BBX 7 12 2 0
BITMAP
30
58
00
C6
C6
C6
C6
FE
C6
C6
C6
C6
ENDCHAR
STARTCHAR hcircumflex
ENCODING 293
SWIDTH 693 0
DWIDTH 9 0
BBX 6 13 2 0
BITMAP
60
B0
00
C0
C0
C0
D8
EC
CC
CC
CC
CC
CC
ENDCHAR
STARTCHAR Hbar
ENCODING 294
SWIDTH 813 0
DWIDTH 10 0
BBX 7 9 2 0
BITMAP
C6
FE
C6
C6
FE
C6
C6
C6
C6
ENDCHAR
STARTCHAR hbar
ENCODING 295
SWIDTH 693 0
DWIDTH 9 0
BBX 6 10 2 0
BITMAP
C0
F8
C0
D8
EC
CC
CC
CC
CC
CC
ENDCHAR
STARTCHAR Itilde
ENCODING 296
SWIDTH 361 0
DWIDTH 5 0
BBX 5 12 1 0
BITMAP
68
B0
00
60
60
60
60
60
60
60
60
60
ENDCHAR
STARTCHAR itilde
ENCODING 297
SWIDTH 361 0
DWIDTH 5 0
BBX 5 10 1 0
BITMAP
68
B0
00
60
60
60
60
60
60
60
ENDCHAR
STARTCHAR Imacron
ENCODING 298
SWIDTH 361 0
DWIDTH 5 0
BBX 4 12 1 0
BITMAP
F0
F0
00
60
60
60
60
60
60
60
60
60
ENDCHAR
STARTCHAR imacron
ENCODING 299
SWIDTH 361 0
DWIDTH 5 0
BBX 4 10 1 0
BITMAP
F0
F0
00
60
60
60
60
60
60
60
ENDCHAR
STARTCHAR Ibreve
ENCODING 300
SWIDTH 361 0
DWIDTH 5 0
BBX 5 12 1 0
BITMAP
88
70
00
60
60
60
60
60
60
60
60
60
ENDCHAR
STARTCHAR ibreve
ENCODING 301
SWIDTH 361 0
DWIDTH 5 0
BBX 5 10 1 0
BITMAP
88
70
00
60
60
60
60
60
60
60
ENDCHAR
STARTCHAR Iogonek
ENCODING 302
SWIDTH 361 0
DWIDTH 5 0
BBX 4 11 2 -2
BITMAP
C0
C0
C0
C0
C0
C0
C0
C0
C0
C0
70
ENDCHAR
STARTCHAR iogonek
ENCODING 303
SWIDTH 361 0
DWIDTH 5 0
BBX 4 12 2 -2
BITMAP
C0
C0
00
C0
C0
C0
C0
C0
C0
C0
C0
70
ENDCHAR
STARTCHAR Idotaccent
ENCODING 304
SWIDTH 361 0
DWIDTH 5 0
BBX 2 12 2 0
BITMAP
C0
C0
00
C0
C0
C0
C0
C0
C0
C0
C0
C0
ENDCHAR
STARTCHAR dotlessi
ENCODING 305
SWIDTH 361 0
DWIDTH 5 0
BBX 2 7 2 0
BITMAP
C0
C0
C0
C0
C0
C0
C0
ENDCHAR
STARTCHAR IJ
ENCODING 306
SWIDTH 844 0
DWIDTH 11 0
BBX 8 10 2 -1
BITMAP
C3
C3
C3
C3
C3
C3
C3
C3
C3
0E
ENDCHAR
STARTCHAR ij
ENCODING 307
SWIDTH 704 0
DWIDTH 10 0
BBX 7 12 2 -2
BITMAP
C6
C6
00
C6
C6
C6
C6
C6
C6
C6
06
1C
ENDCHAR
STARTCHAR Jcircumflex
ENCODING 308
SWIDTH 501 0
DWIDTH 6 0
BBX 5 13 1 -1
BITMAP
30
58
00
30
30
30
30
30
30
30
30
30
E0
ENDCHAR
STARTCHAR jcircumflex
ENCODING 309
SWIDTH 361 0
DWIDTH 5 0
BBX 5 12 0 -2
BITMAP
30
58
00
30
30
30
30
30
30
30
30
E0
ENDCHAR
STARTCHAR Kcommaaccent
ENCODING 310
SWIDTH 753 0
DWIDTH 9 0
BBX 7 14 2 -5
BITMAP
C6
CC
C8
D0
F0
D8
DC
CC
C6
00
30
30
10
20
ENDCHAR
STARTCHAR kcommaaccent
ENCODING 311
SWIDTH 681 0
DWIDTH 8 0
BBX 6 15 2 -5
BITMAP
C0
C0
C0
CC
C8
D0
F0
D8
CC
CC
00
30
30
10
20
ENDCHAR
STARTCHAR kgreenlandic
ENCODING 312
SWIDTH 681 0
DWIDTH 8 0
BBX 6 7 2 0
BITMAP
CC
C8
D0
F0
D8
CC
CC
ENDCHAR
STARTCHAR Lacute
ENCODING 313
SWIDTH 620 0
DWIDTH 8 0
BBX 6 12 2 0
BITMAP
30
60
00
C0
C0
C0
C0
C0
C0
C0
C0
FC
ENDCHAR
STARTCHAR lacute
ENCODING 314
SWIDTH 361 0
DWIDTH 5 0
BBX 3 13 2 0
BITMAP
60
C0
00
C0
C0
C0
C0
C0
C0
C0
C0
C0
C0
ENDCHAR
STARTCHAR Lcommaaccent
ENCODING 315
SWIDTH 620 0
DWIDTH 8 0
BBX 6 14 2 -5
BITMAP
C0
C0
C0
C0
C0
C0
C0
C0
FC
00
60
60
20
40
ENDCHAR
STARTCHAR lcommaaccent
ENCODING 316
SWIDTH 361 0
DWIDTH 5 0
BBX 2 15 2 -5
BITMAP
C0
C0
C0
C0
C0
C0
C0
C0
C0
C0
00
C0
C0
40
80
ENDCHAR
STARTCHAR Lcaron
ENCODING 317
SWIDTH 854 0
DWIDTH 11 0
BBX 9 10 2 0
BITMAP
0180
C180
C080
C100
C000
C000
C000
C000
C000
FC00
ENDCHAR
STARTCHAR lcaron
ENCODING 318
SWIDTH 608 0
DWIDTH 8 0
BBX 6 10 2 0
BITMAP
CC
CC
C4
C8
C0
C0
C0
C0
C0
C0
ENDCHAR
STARTCHAR Ldot
ENCODING 319
SWIDTH 932 0
DWIDTH 16 0
BBX 11 9 2 0
BITMAP
C000
C000
C000
C000
C060
C060
C000
C000
FC00
ENDCHAR
STARTCHAR ldot
ENCODING 320
SWIDTH 686 0
DWIDTH 13 0
BBX 8 10 2 0
BITMAP
C0
C0
C0
C0
C0
C3
C3
C0
C0
C0
ENDCHAR
STARTCHAR Lslash
ENCODING 321
SWIDTH 620 0
DWIDTH 8 0
BBX 8 9 0 0
BITMAP
30
30
30
3C
F0
30
30
30
3F
ENDCHAR
STARTCHAR lslash
ENCODING 322
SWIDTH 361 0
DWIDTH 6 0
BBX 6 10 0 0
BITMAP
30
30
30
3C
F0
30
30
30
30
30
ENDCHAR
STARTCHAR Nacute
ENCODING 323
SWIDTH 783 0
DWIDTH 10 0
BBX 7 12 2 0
BITMAP
18
30
00
E2
E2
B2
B2
BA
9A
8E
8E
86
ENDCHAR
STARTCHAR nacute
ENCODING 324
SWIDTH 693 0
DWIDTH 9 0
BBX 6 10 2 0
BITMAP
18
30
00
D8
EC
CC
CC
CC
CC
CC
ENDCHAR
STARTCHAR Ncommaaccent
ENCODING 325
SWIDTH 783 0
DWIDTH 10 0
BBX 7 14 2 -5
BITMAP
E2
E2
B2
B2
BA
9A
8E
8E
86
00
18
18
08
10
ENDCHAR
STARTCHAR ncommaaccent
ENCODING 326
SWIDTH 693 0
DWIDTH 9 0
BBX 6 12 2 -5
BITMAP
D8
EC
CC
CC
CC
CC
CC
00
30
30
10
20
ENDCHAR
STARTCHAR Ncaron
ENCODING 327
SWIDTH 783 0
DWIDTH 10 0
BBX 7 12 2 0
BITMAP
58
30
00
E2
E2
B2
B2
BA
9A
8E
8E
86
ENDCHAR
STARTCHAR ncaron
ENCODING 328
SWIDTH 693 0
DWIDTH 9 0
BBX 6 10 2 0
BITMAP
58
30
00
D8
EC
CC
CC
CC
CC
CC
ENDCHAR
STARTCHAR napostrophe
ENCODING 329
SWIDTH 945 0
DWIDTH 12 0
BBX 10 10 1 0
BITMAP
C000
C000
4000
8D80
0EC0
0CC0
0CC0
0CC0
0CC0
0CC0
ENDCHAR
STARTCHAR Eng
ENCODING 330
SWIDTH 783 0
DWIDTH 10 0
BBX 7 11 2 -2
BITMAP
E2
E2
B2
B2
BA
9A
8E
8E
86
06
1C
ENDCHAR
STARTCHAR eng
ENCODING 331
SWIDTH 693 0
DWIDTH 9 0
BBX 6 9 2 -2
BITMAP
D8
EC
CC
CC
CC
CC
CC
0C
38
ENDCHAR
STARTCHAR Omacron
ENCODING 332
SWIDTH 855 0
DWIDTH 11 0
BBX 8 12 2 0
BITMAP
3C
3C
00
3C
66
C3
C3
C3
C3
C3
66
3C
ENDCHAR
STARTCHAR omacron
ENCODING 333
SWIDTH 675 0
DWIDTH 8 0
BBX 6 10 1 0
BITMAP
78
78
00
78
CC
CC
CC
CC
CC
78
ENDCHAR
STARTCHAR Obreve
ENCODING 334
SWIDTH 855 0
DWIDTH 11 0
BBX 8 12 2 0
BITMAP
22
1C
00
3C
66
C3
C3
C3
C3
C3
66
3C
ENDCHAR
STARTCHAR obreve
ENCODING 335
SWIDTH 675 0
DWIDTH 8 0
BBX 6 10 1 0
BITMAP
44
38
00
78
CC
CC
CC
CC
CC
78
ENDCHAR
STARTCHAR Ohungarumlaut
ENCODING 336
SWIDTH 855 0
DWIDTH 11 0
BBX 8 12 2 0
BITMAP
36
24
00
3C
66
C3
C3
C3
C3
C3
66
3C
ENDCHAR
STARTCHAR ohungarumlaut
ENCODING 337
SWIDTH 675 0
DWIDTH 8 0
BBX 6 10 1 0
BITMAP
6C
48
00
78
CC
CC
CC
CC
CC
78
ENDCHAR
STARTCHAR OE
ENCODING 338
SWIDTH 1102 0
DWIDTH 13 0
BBX 11 9 1 0
BITMAP
3BE0
6700
C300
C300
C3C0
C300
C300
6700
3BE0
ENDCHAR
STARTCHAR oe
ENCODING 339
SWIDTH 990 0
DWIDTH 12 0
BBX 10 7 1 0
BITMAP
7780
CCC0
CCC0
CFC0
CC00
CC40
7780
ENDCHAR
STARTCHAR Racute
ENCODING 340
SWIDTH 734 0
DWIDTH 9 0
BBX 7 12 2 0
BITMAP
18
30
00
F8
CC
CC
C8
F0
D8
D8
CC
CE
ENDCHAR
STARTCHAR racute
ENCODING 341
SWIDTH 500 0
DWIDTH 6 0
BBX 5 10 1 0
BITMAP
30
60
00
D8
D8
E0
C0
C0
C0
C0
ENDCHAR
STARTCHAR Rcommaaccent
ENCODING 342
SWIDTH 734 0
DWIDTH 9 0
BBX 7 14 2 -5
BITMAP
F8
CC
CC
C8
F0
D8
D8
CC
CE
00
30
30
10
20
ENDCHAR
STARTCHAR rcommaaccent
ENCODING 343
SWIDTH 500 0
DWIDTH 6 0
BBX 5 12 1 -5
BITMAP
D8
D8
E0
C0
C0
C0
C0
00
60
60
20
40
ENDCHAR
STARTCHAR Rcaron
ENCODING 344
SWIDTH 734 0
DWIDTH 9 0
BBX 7 12 2 0
BITMAP
58
30
00
F8
CC
CC
C8
F0
D8
D8
CC
CE
ENDCHAR
STARTCHAR rcaron
ENCODING 345
SWIDTH 500 0
DWIDTH 6 0
BBX 5 10 1 0
BITMAP
58
30
00
D8
D8
E0
C0
C0
C0
C0
ENDCHAR
STARTCHAR Sacute
ENCODING 346
SWIDTH 594 0
DWIDTH 8 0
BBX 6 12 1 0
BITMAP
18
30
00
78
CC
C0
E0
78
1C
0C
CC
78
ENDCHAR
STARTCHAR sacute
ENCODING 347
SWIDTH 622 0
DWIDTH 8 0
BBX 6 10 1 0
BITMAP
18
30
00
7C
C0
E0
78
1C
0C
F8
ENDCHAR
STARTCHAR Scircumflex
ENCODING 348
SWIDTH 594 0
DWIDTH 8 0
BBX 6 12 1 0
BITMAP
30
58
00
78
CC
C0
E0
78
1C
0C
CC
78
ENDCHAR
STARTCHAR scircumflex
ENCODING 349
SWIDTH 622 0
DWIDTH 8 0
BBX 6 10 1 0
BITMAP
30
58
00
7C
C0
E0
78
1C
0C
F8
ENDCHAR
STARTCHAR Scedilla
ENCODING 350
SWIDTH 594 0
DWIDTH 8 0
BBX 6 11 1 -2
BITMAP
78
CC
C0
E0
78
1C
0C
CC
78
18
70
ENDCHAR
STARTCHAR scedilla
ENCODING 351
SWIDTH 622 0
DWIDTH 8 0
BBX 6 9 1 -2
BITMAP
7C
C0
E0
78
1C
0C
F8
30
E0
ENDCHAR
STARTCHAR Scaron
ENCODING 352
SWIDTH 594 0
DWIDTH 8 0
BBX 6 11 1 0
BITMAP
58
30
00
78
CC
C0
F8
7C
0C
CC
78
ENDCHAR
STARTCHAR scaron
ENCODING 353
SWIDTH 622 0
DWIDTH 8 0
BBX 6 10 1 0
BITMAP
58
30
00
7C
C0
E0
78
1C
0C
F8
ENDCHAR
STARTCHAR Tcommaaccent
ENCODING 354
SWIDTH 735 0
DWIDTH 9 0
BBX 8 11 1 -2
BITMAP
FF
18
18
18
18
18
18
18
18
18
70
ENDCHAR
STARTCHAR tcommaaccent
ENCODING 355
SWIDTH 436 0
DWIDTH 5 0
BBX 5 11 0 -2
BITMAP
20
60
F8
60
60
60
60
60
38
30
E0
ENDCHAR
STARTCHAR Tcaron
ENCODING 356
SWIDTH 735 0
DWIDTH 9 0
BBX 8 12 1 0
BITMAP
2C
18
00
FF
18
18
18
18
18
18
18
18
ENDCHAR
STARTCHAR tcaron
ENCODING 357
SWIDTH 679 0
DWIDTH 8 0
BBX 8 10 0 0
BITMAP
03
23
61
FA
60
60
60
60
60
38
ENDCHAR
STARTCHAR Tbar
ENCODING 358
SWIDTH 735 0
DWIDTH 9 0
BBX 8 9 1 0
BITMAP
FF
18
18
18
3E
18
18
18
18
ENDCHAR
STARTCHAR tbar
ENCODING 359
SWIDTH 436 0
DWIDTH 5 0
BBX 5 9 0 0
BITMAP
20
60
F8
60
60
F8
60
60
38
ENDCHAR
STARTCHAR Utilde
ENCODING 360
SWIDTH 783 0
DWIDTH 10 0
BBX 7 12 2 0
BITMAP
34
58
00
C6
C6
C6
C6
C6
C6
C6
6C
38
ENDCHAR
STARTCHAR utilde
ENCODING 361
SWIDTH 693 0
DWIDTH 9 0
BBX 6 10 2 0
BITMAP
34
58
00
CC
CC
CC
CC
CC
DC
6C
ENDCHAR
STARTCHAR Umacron
ENCODING 362
SWIDTH 783 0
DWIDTH 10 0
BBX 7 12 2 0
BITMAP
3C
3C
00
C6
C6
C6
C6
C6
C6
C6
6C
38
ENDCHAR
STARTCHAR umacron
ENCODING 363
SWIDTH 693 0
DWIDTH 9 0
BBX 6 10 2 0
BITMAP
78
78
00
CC
CC
CC
CC
CC
DC
6C
ENDCHAR
STARTCHAR Ubreve
ENCODING 364
SWIDTH 783 0
DWIDTH 10 0
BBX 7 12 2 0
BITMAP
44
38
00
C6
C6
C6
C6
C6
C6
C6
6C
38
ENDCHAR
STARTCHAR ubreve
ENCODING 365
SWIDTH 693 0
DWIDTH 9 0
BBX 6 10 2 0
BITMAP
44
38
00
CC
CC
CC
CC
CC
DC
6C
ENDCHAR
STARTCHAR Uring
ENCODING 366
SWIDTH 783 0
DWIDTH 10 0
BBX 7 13 2 0
BITMAP
18
2C
18
00
C6
C6
C6
C6
C6
C6
C6
6C
38
ENDCHAR
STARTCHAR uring
ENCODING 367
SWIDTH 693 0
DWIDTH 9 0
BBX 6 11 2 0
BITMAP
30
58
30
00
CC
CC
CC
CC
CC
DC
6C
ENDCHAR
STARTCHAR Uhungarumlaut
ENCODING 368
SWIDTH 783 0
DWIDTH 10 0
BBX 7 12 2 0
BITMAP
6C
48
00
C6
C6
C6
C6
C6
C6
C6
6C
38
ENDCHAR
STARTCHAR uhungarumlaut
ENCODING 369
SWIDTH 693 0
DWIDTH 9 0
BBX 6 10 2 0
BITMAP
6C
48
00
CC
CC
CC
CC
CC
DC
6C
ENDCHAR
STARTCHAR Uogonek
ENCODING 370
SWIDTH 783 0
DWIDTH 10 0
BBX 7 11 2 -2
BITMAP
C6
C6
C6
C6
C6
C6
C6
6C
38
30
1C
ENDCHAR
STARTCHAR uogonek
ENCODING 371
SWIDTH 693 0
DWIDTH 9 0
BBX 6 9 2 -2
BITMAP
CC
CC
CC
CC
CC
DC
6C
30
1C
ENDCHAR
STARTCHAR Wcircumflex
ENCODING 372
SWIDTH 940 0
DWIDTH 12 0
BBX 10 12 1 0
BITMAP
0C00
1600
0000
C0C0
CCC0
CCC0
6D80
6D80
7F80
3300
3300
3300
ENDCHAR
STARTCHAR wcircumflex
ENCODING 373
SWIDTH 885 0
DWIDTH 11 0
BBX 10 10 1 0
BITMAP
0C00
1600
0000
C0C0
CCC0
6D80
6D80
7F80
3300
3300
ENDCHAR
STARTCHAR Ycircumflex
ENCODING 374
SWIDTH 738 0
DWIDTH 9 0
BBX 8 12 1 0
BITMAP
18
2C
00
C3
C3
62
66
34
18
18
18
18
ENDCHAR
STARTCHAR ycircumflex
ENCODING 375
SWIDTH 645 0
DWIDTH 8 0
BBX 7 12 1 -2
BITMAP
30
58
00
C6
C6
C4
6C
68
38
30
60
60
ENDCHAR
STARTCHAR Ydieresis
ENCODING 376
SWIDTH 738 0
DWIDTH 9 0
BBX 8 11 1 0
BITMAP
24
24
00
C3
C3
66
3C
18
18
18
18
ENDCHAR
STARTCHAR Zacute
ENCODING 377
SWIDTH 675 0
DWIDTH 8 0
BBX 6 12 1 0
BITMAP
18
30
00
FC
0C
18
38
30
60
60
C0
FC
ENDCHAR
STARTCHAR zacute
ENCODING 378
SWIDTH 608 0
DWIDTH 7 0
BBX 5 10 1 0
BITMAP
18
30
00
F8
18
30
70
60
C0
F8
ENDCHAR
STARTCHAR Zdotaccent
ENCODING 379
SWIDTH 675 0
DWIDTH 8 0
BBX 6 12 1 0
BITMAP
30
30
00
FC
0C
18
38
30
60
60
C0
FC
ENDCHAR
STARTCHAR zdotaccent
ENCODING 380
SWIDTH 608 0
DWIDTH 7 0
BBX 5 10 1 0
BITMAP
30
30
00
F8
18
30
70
60
C0
F8
ENDCHAR
STARTCHAR Zcaron
ENCODING 381
SWIDTH 675 0
DWIDTH 8 0
BBX 6 11 1 0
BITMAP
58
30
00
FC
0C
18
38
70
60
C0
FC
ENDCHAR
STARTCHAR zcaron
ENCODING 382
SWIDTH 608 0
DWIDTH 7 0
BBX 5 10 1 0
BITMAP
58
30
00
F8
18
30
70
60
C0
F8
ENDCHAR
STARTCHAR uni0186
ENCODING 390
SWIDTH 726 0
DWIDTH 9 0
BBX 7 9 2 0
BITMAP
78
8C
06
06
06
06
06
CC
78
ENDCHAR
STARTCHAR uni0189
ENCODING 393
SWIDTH 819 0
DWIDTH 10 0
BBX 8 9 1 0
BITMAP
7C
66
63
63
FB
63
63
66
7C
ENDCHAR
STARTCHAR uni018E
ENCODING 398
SWIDTH 645 0
DWIDTH 8 0
BBX 6 9 2 0
BITMAP
FC
0C
0C
0C
7C
0C
0C
0C
FC
ENDCHAR
STARTCHAR florin
ENCODING 402
SWIDTH 687 0
DWIDTH 8 0
BBX 7 10 1 -1
BITMAP
1C
32
30
30
F8
60
60
C0
C0
C0
ENDCHAR
STARTCHAR uni0197
ENCODING 407
SWIDTH 361 0
DWIDTH 5 0
BBX 5 9 1 0
BITMAP
60
60
60
60
F8
60
60
60
60
ENDCHAR
STARTCHAR uni019A
ENCODING 410
SWIDTH 361 0
DWIDTH 5 0
BBX 5 10 1 0
BITMAP
60
60
60
60
F8
60
60
60
60
60
ENDCHAR
STARTCHAR uni019D
ENCODING 413
SWIDTH 783 0
DWIDTH 10 0
BBX 9 11 0 -2
BITMAP
3880
3880
2C80
2C80
2E80
2680
3380
3380
3180
3000
E000
ENDCHAR
STARTCHAR uni019F
ENCODING 415
SWIDTH 855 0
DWIDTH 11 0
BBX 8 9 2 0
BITMAP
3C
66
C3
C3
FF
C3
C3
66
3C
ENDCHAR
STARTCHAR Ohorn
ENCODING 416
SWIDTH 855 0
DWIDTH 11 0
BBX 10 9 2 0
BITMAP
3CC0
66C0
C340
C380
C300
C300
C300
6600
3C00
ENDCHAR
STARTCHAR ohorn
ENCODING 417
SWIDTH 675 0
DWIDTH 8 0
BBX 8 7 1 0
BITMAP
7B
CF
CD
CE
CC
CC
78
ENDCHAR
STARTCHAR uni01A7
ENCODING 423
SWIDTH 594 0
DWIDTH 8 0
BBX 6 9 1 0
BITMAP
78
CC
0C
1C
78
E0
C0
CC
78
ENDCHAR
STARTCHAR uni01A8
ENCODING 424
SWIDTH 622 0
DWIDTH 8 0
BBX 6 7 1 0
BITMAP
F8
0C
1C
78
E0
C0
7C
ENDCHAR
STARTCHAR uni01AE
ENCODING 430
SWIDTH 735 0
DWIDTH 9 0
BBX 8 11 1 -2
BITMAP
FF
18
18
18
18
18
18
18
18
18
0E
ENDCHAR
STARTCHAR Uhorn
ENCODING 431
SWIDTH 783 0
DWIDTH 10 0
BBX 9 9 2 0
BITMAP
C780
C780
C680
C700
C600
C600
C600
6C00
3800
ENDCHAR
STARTCHAR uhorn
ENCODING 432
SWIDTH 693 0
DWIDTH 9 0
BBX 8 7 2 0
BITMAP
CF
CF
CD
CE
CC
DC
6C
ENDCHAR
STARTCHAR uni01B5
ENCODING 437
SWIDTH 675 0
DWIDTH 8 0
BBX 6 9 1 0
BITMAP
FC
0C
18
38
7C
60
60
C0
FC
ENDCHAR
STARTCHAR uni01B6
ENCODING 438
SWIDTH 608 0
DWIDTH 7 0
BBX 5 7 1 0
BITMAP
F8
18
30
F8
60
C0
F8
ENDCHAR
STARTCHAR uni01BB
ENCODING 443
SWIDTH 687 0
DWIDTH 8 0
BBX 6 9 1 0
BITMAP
78
CC
0C
0C
FC
30
60
FC
FC
ENDCHAR
STARTCHAR uni01BC
ENCODING 444
SWIDTH 687 0
DWIDTH 8 0
BBX 6 9 1 0
BITMAP
7C
7C
40
40
78
0C
0C
CC
78
ENDCHAR
STARTCHAR uni01C0
ENCODING 448
SWIDTH 265 0
DWIDTH 4 0
BBX 2 11 1 -1
BITMAP
C0
C0
C0
C0
C0
C0
C0
C0
C0
C0
C0
ENDCHAR
STARTCHAR uni01C2
ENCODING 450
SWIDTH 687 0
DWIDTH 8 0
BBX 6 11 1 -1
BITMAP
30
30
30
30
FC
30
FC
30
30
30
30
ENDCHAR
STARTCHAR uni01C3
ENCODING 451
SWIDTH 265 0
DWIDTH 4 0
BBX 2 9 1 0
BITMAP
C0
C0
C0
C0
C0
40
00
C0
C0
ENDCHAR
STARTCHAR uni01CD
ENCODING 461
SWIDTH 773 0
DWIDTH 9 0
BBX 7 12 1 0
BITMAP
2C
18
00
18
18
2C
2C
4C
7E
C6
C6
C6
ENDCHAR
STARTCHAR uni01CE
ENCODING 462
SWIDTH 623 0
DWIDTH 8 0
BBX 7 10 1 0
BITMAP
58
30
00
78
CC
0C
7C
CC
CC
76
ENDCHAR
STARTCHAR uni01CF
ENCODING 463
SWIDTH 361 0
DWIDTH 5 0
BBX 4 12 1 0
BITMAP
B0
60
00
60
60
60
60
60
60
60
60
60
ENDCHAR
STARTCHAR uni01D0
ENCODING 464
SWIDTH 361 0
DWIDTH 5 0
BBX 4 10 1 0
BITMAP
B0
60
00
60
60
60
60
60
60
60
ENDCHAR
STARTCHAR uni01D1
ENCODING 465
SWIDTH 855 0
DWIDTH 11 0
BBX 8 12 2 0
BITMAP
2C
18
00
3C
66
C3
C3
C3
C3
C3
66
3C
ENDCHAR
STARTCHAR uni01D2
ENCODING 466
SWIDTH 675 0
DWIDTH 8 0
BBX 6 10 1 0
BITMAP
58
30
00
78
CC
CC
CC
CC
CC
78
ENDCHAR
STARTCHAR uni01D3
ENCODING 467
SWIDTH 783 0
DWIDTH 10 0
BBX 7 12 2 0
BITMAP
2C
18
00
C6
C6
C6
C6
C6
C6
C6
6C
38
ENDCHAR
STARTCHAR uni01D4
ENCODING 468
SWIDTH 693 0
DWIDTH 9 0
BBX 6 10 2 0
BITMAP
58
30
00
CC
CC
CC
CC
CC
DC
6C
ENDCHAR
STARTCHAR uni01D5
ENCODING 469
SWIDTH 783 0
DWIDTH 10 0
BBX 7 14 2 0
BITMAP
78
78
00
48
48
00
C6
C6
C6
C6
C6
C6
6C
38
ENDCHAR
STARTCHAR uni01D6
ENCODING 470
SWIDTH 693 0
DWIDTH 9 0
BBX 6 13 2 0
BITMAP
78
78
00
48
48
00
CC
CC
CC
CC
CC
DC
6C
ENDCHAR
STARTCHAR uni01D7
ENCODING 471
SWIDTH 783 0
DWIDTH 10 0
BBX 7 14 2 0
BITMAP
18
30
00
48
48
00
C6
C6
C6
C6
C6
C6
6C
38
ENDCHAR
STARTCHAR uni01D8
ENCODING 472
SWIDTH 693 0
DWIDTH 9 0
BBX 6 13 2 0
BITMAP
18
30
00
48
48
00
CC
CC
CC
CC
CC
DC
6C
ENDCHAR
STARTCHAR uni01D9
ENCODING 473
SWIDTH 783 0
DWIDTH 10 0
BBX 7 14 2 0
BITMAP
58
30
00
48
48
00
C6
C6
C6
C6
C6
C6
6C
38
ENDCHAR
STARTCHAR uni01DA
ENCODING 474
SWIDTH 693 0
DWIDTH 9 0
BBX 6 13 2 0
BITMAP
58
30
00
48
48
00
CC
CC
CC
CC
CC
DC
6C
ENDCHAR
STARTCHAR uni01DB
ENCODING 475
SWIDTH 783 0
DWIDTH 10 0
BBX 7 14 2 0
BITMAP
60
30
00
48
48
00
C6
C6
C6
C6
C6
C6
6C
38
ENDCHAR
STARTCHAR uni01DC
ENCODING 476
SWIDTH 693 0
DWIDTH 9 0
BBX 6 13 2 0
BITMAP
60
30
00
48
48
00
CC
CC
CC
CC
CC
DC
6C
ENDCHAR
STARTCHAR uni01DD
ENCODING 477
SWIDTH 614 0
DWIDTH 8 0
BBX 6 7 1 0
BITMAP
78
8C
0C
FC
CC
CC
78
ENDCHAR
STARTCHAR uni01DE
ENCODING 478
SWIDTH 773 0
DWIDTH 9 0
BBX 7 14 1 0
BITMAP
3C
3C
00
24
24
00
18
2C
2C
4C
7E
C6
C6
C6
ENDCHAR
STARTCHAR uni01DF
ENCODING 479
SWIDTH 623 0
DWIDTH 8 0
BBX 7 13 1 0
BITMAP
78
78
00
48
48
00
78
CC
0C
7C
CC
CC
76
ENDCHAR
STARTCHAR uni01E0
ENCODING 480
SWIDTH 773 0
DWIDTH 9 0
BBX 7 15 1 0
BITMAP
3C
3C
00
18
18
00
18
18
2C
2C
4C
7E
C6
C6
C6
ENDCHAR
STARTCHAR uni01E1
ENCODING 481
SWIDTH 623 0
DWIDTH 8 0
BBX 7 13 1 0
BITMAP
78
78
00
30
30
00
78
CC
0C
7C
CC
CC
76
ENDCHAR
STARTCHAR uni01E2
ENCODING 482
SWIDTH 997 0
DWIDTH 12 0
BBX 10 12 1 0
BITMAP
0F00
0F00
0000
0FC0
1600
1600
2600
6780
7E00
C600
C600
C7C0
ENDCHAR
STARTCHAR uni01E3
ENCODING 483
SWIDTH 913 0
DWIDTH 11 0
BBX 10 10 1 0
BITMAP
1E00
1E00
0000
7780
CCC0
0CC0
7FC0
CC00
CC40
7780
ENDCHAR
STARTCHAR uni01E4
ENCODING 484
SWIDTH 759 0
DWIDTH 9 0
BBX 8 9 1 0
BITMAP
3C
66
C0
C0
C0
DF
C6
66
3E
ENDCHAR
STARTCHAR uni01E5
ENCODING 485
SWIDTH 696 0
DWIDTH 8 0
BBX 6 9 1 -2
BITMAP
7C
CC
CC
CC
DC
6C
FC
CC
78
ENDCHAR
STARTCHAR Gcaron
ENCODING 486
SWIDTH 759 0
DWIDTH 9 0
BBX 7 12 1 0
BITMAP
58
30
00
3C
66
C0
C0
C0
C6
C6
66
3E
ENDCHAR
STARTCHAR gcaron
ENCODING 487
SWIDTH 696 0
DWIDTH 8 0
BBX 6 12 1 -2
BITMAP
58
30
00
7C
CC
CC
CC
DC
6C
0C
CC
78
ENDCHAR
STARTCHAR uni01E8
ENCODING 488
SWIDTH 753 0
DWIDTH 9 0
BBX 7 12 2 0
BITMAP
58
30
00
C6
CC
C8
D0
F0
D8
DC
CC
C6
ENDCHAR
STARTCHAR uni01E9
ENCODING 489
SWIDTH 681 0
DWIDTH 8 0
BBX 6 13 2 0
BITMAP
B0
60
00
C0
C0
C0
CC
C8
D0
F0
D8
CC
CC
ENDCHAR
STARTCHAR uni01EA
ENCODING 490
SWIDTH 855 0
DWIDTH 11 0
BBX 8 11 2 -2
BITMAP
3C
66
C3
C3
C3
C3
C3
66
3C
18
0E
ENDCHAR
STARTCHAR uni01EB
ENCODING 491
SWIDTH 675 0
DWIDTH 8 0
BBX 6 9 1 -2
BITMAP
78
CC
CC
CC
CC
CC
78
30
1C
ENDCHAR
STARTCHAR uni01EC
ENCODING 492
SWIDTH 855 0
DWIDTH 11 0
BBX 8 14 2 -2
BITMAP
3C
3C
00
3C
66
C3
C3
C3
C3
C3
66
3C
18
0E
ENDCHAR
STARTCHAR uni01ED
ENCODING 493
SWIDTH 675 0
DWIDTH 8 0
BBX 6 12 1 -2
BITMAP
78
78
00
78
CC
CC
CC
CC
CC
78
30
1C
ENDCHAR
STARTCHAR uni01F0
ENCODING 496
SWIDTH 361 0
DWIDTH 5 0
BBX 5 12 0 -2
BITMAP
58
30
00
30
30
30
30
30
30
30
30
E0
ENDCHAR
STARTCHAR uni01F4
ENCODING 500
SWIDTH 759 0
DWIDTH 9 0
BBX 7 12 1 0
BITMAP
18
30
00
3C
66
C0
C0
C0
C6
C6
66
3E
ENDCHAR
STARTCHAR uni01F5
ENCODING 501
SWIDTH 696 0
DWIDTH 8 0
BBX 6 12 1 -2
BITMAP
18
30
00
7C
CC
CC
CC
DC
6C
0C
CC
78
ENDCHAR
STARTCHAR uni01F8
ENCODING 504
SWIDTH 783 0
DWIDTH 10 0
BBX 7 12 2 0
BITMAP
60
30
00
E2
E2
B2
B2
BA
9A
8E
8E
86
ENDCHAR
STARTCHAR uni01F9
ENCODING 505
SWIDTH 693 0
DWIDTH 9 0
BBX 6 10 2 0
BITMAP
60
30
00
D8
EC
CC
CC
CC
CC
CC
ENDCHAR
STARTCHAR Aringacute
ENCODING 506
SWIDTH 773 0
DWIDTH 9 0
BBX 7 14 1 0
BITMAP
0C
18
00
18
2C
18
18
2C
2C
4C
7E
C6
C6
C6
ENDCHAR
STARTCHAR aringacute
ENCODING 507
SWIDTH 623 0
DWIDTH 8 0
BBX 7 14 1 0
BITMAP
18
30
00
30
58
30
00
78
CC
0C
7C
CC
CC
76
ENDCHAR
STARTCHAR AEacute
ENCODING 508
SWIDTH 997 0
DWIDTH 12 0
BBX 10 12 1 0
BITMAP
0300
0600
0000
0FC0
1600
1600
2600
6780
7E00
C600
C600
C7C0
ENDCHAR
STARTCHAR aeacute
ENCODING 509
SWIDTH 913 0
DWIDTH 11 0
BBX 10 10 1 0
BITMAP
0600
0C00
0000
7780
CCC0
0CC0
7FC0
CC00
CC40
7780
ENDCHAR
STARTCHAR Oslashacute
ENCODING 510
SWIDTH 855 0
DWIDTH 11 0
BBX 8 14 2 -1
BITMAP
0C
18
00
01
3D
66
C7
CB
CB
D3
E3
66
BC
80
ENDCHAR
STARTCHAR oslashacute
ENCODING 511
SWIDTH 675 0
DWIDTH 8 0
BBX 6 12 1 -1
BITMAP
18
30
00
04
7C
CC
DC
CC
EC
CC
F8
80
ENDCHAR
STARTCHAR uni0200
ENCODING 512
SWIDTH 773 0
DWIDTH 9 0
BBX 7 12 1 0
BITMAP
6C
24
00
18
18
2C
2C
4C
7E
C6
C6
C6
ENDCHAR
STARTCHAR uni0201
ENCODING 513
SWIDTH 623 0
DWIDTH 8 0
BBX 7 10 1 0
BITMAP
D8
48
00
78
CC
0C
7C
CC
CC
76
ENDCHAR
STARTCHAR uni0202
ENCODING 514
SWIDTH 773 0
DWIDTH 9 0
BBX 7 12 1 0
BITMAP
38
44
00
18
18
2C
2C
4C
7E
C6
C6
C6
ENDCHAR
STARTCHAR uni0203
ENCODING 515
SWIDTH 623 0
DWIDTH 8 0
BBX 7 10 1 0
BITMAP
38
44
00
78
CC
0C
7C
CC
CC
76
ENDCHAR
STARTCHAR uni0204
ENCODING 516
SWIDTH 645 0
DWIDTH 8 0
BBX 6 12 2 0
BITMAP
D8
48
00
FC
C0
C0
C0
F8
C0
C0
C0
FC
ENDCHAR
STARTCHAR uni0205
ENCODING 517
SWIDTH 614 0
DWIDTH 8 0
BBX 6 10 1 0
BITMAP
D8
48
00
78
CC
CC
FC
C0
C4
78
ENDCHAR
STARTCHAR uni0206
ENCODING 518
SWIDTH 645 0
DWIDTH 8 0
BBX 6 12 2 0
BITMAP
70
88
00
FC
C0
C0
C0
F8
C0
C0
C0
FC
ENDCHAR
STARTCHAR uni0207
ENCODING 519
SWIDTH 614 0
DWIDTH 8 0
BBX 6 10 1 0
BITMAP
38
44
00
78
CC
CC
FC
C0
C4
78
ENDCHAR
STARTCHAR uni0208
ENCODING 520
SWIDTH 361 0
DWIDTH 5 0
BBX 5 12 0 0
BITMAP
D8
48
00
30
30
30
30
30
30
30
30
30
ENDCHAR
STARTCHAR uni0209
ENCODING 521
SWIDTH 361 0
DWIDTH 5 0
BBX 5 10 0 0
BITMAP
D8
48
00
30
30
30
30
30
30
30
ENDCHAR
STARTCHAR uni020A
ENCODING 522
SWIDTH 361 0
DWIDTH 5 0
BBX 5 12 1 0
BITMAP
70
88
00
60
60
60
60
60
60
60
60
60
ENDCHAR
STARTCHAR uni020B
ENCODING 523
SWIDTH 361 0
DWIDTH 5 0
BBX 5 10 1 0
BITMAP
70
88
00
60
60
60
60
60
60
60
ENDCHAR
STARTCHAR uni020C
ENCODING 524
SWIDTH 855 0
DWIDTH 11 0
BBX 8 12 2 0
BITMAP
6C
24
00
3C
66
C3
C3
C3
C3
C3
66
3C
ENDCHAR
STARTCHAR uni020D
ENCODING 525
SWIDTH 675 0
DWIDTH 8 0
BBX 6 10 1 0
BITMAP
D8
48
00
78
CC
CC
CC
CC
CC
78
ENDCHAR
STARTCHAR uni020E
ENCODING 526
SWIDTH 855 0
DWIDTH 11 0
BBX 8 12 2 0
BITMAP
1C
22
00
3C
66
C3
C3
C3
C3
C3
66
3C
ENDCHAR
STARTCHAR uni020F
ENCODING 527
SWIDTH 675 0
DWIDTH 8 0
BBX 6 10 1 0
BITMAP
38
44
00
78
CC
CC
CC
CC
CC
78
ENDCHAR
STARTCHAR uni0210
ENCODING 528
SWIDTH 734 0
DWIDTH 9 0
BBX 7 12 2 0
BITMAP
D8
48
00
F8
CC
CC
C8
F0
D8
D8
CC
CE
ENDCHAR
STARTCHAR uni0211
ENCODING 529
SWIDTH 500 0
DWIDTH 6 0
BBX 5 10 1 0
BITMAP
D8
48
00
D8
D8
E0
C0
C0
C0
C0
ENDCHAR
STARTCHAR uni0212
ENCODING 530
SWIDTH 734 0
DWIDTH 9 0
BBX 7 12 2 0
BITMAP
38
44
00
F8
CC
CC
C8
F0
D8
D8
CC
CE
ENDCHAR
STARTCHAR uni0213
ENCODING 531
SWIDTH 500 0
DWIDTH 6 0
BBX 5 10 1 0
BITMAP
70
88
00
D8
D8
E0
C0
C0
C0
C0
ENDCHAR
STARTCHAR uni0214
ENCODING 532
SWIDTH 783 0
DWIDTH 10 0
BBX 7 12 2 0
BITMAP
6C
24
00
C6
C6
C6
C6
C6
C6
C6
6C
38
ENDCHAR
STARTCHAR uni0215
ENCODING 533
SWIDTH 693 0
DWIDTH 9 0
BBX 6 10 2 0
BITMAP
D8
48
00
CC
CC
CC
CC
CC
DC
6C
ENDCHAR
STARTCHAR uni0216
ENCODING 534
SWIDTH 783 0
DWIDTH 10 0
BBX 7 12 2 0
BITMAP
38
44
00
C6
C6
C6
C6
C6
C6
C6
6C
38
ENDCHAR
STARTCHAR uni0217
ENCODING 535
SWIDTH 693 0
DWIDTH 9 0
BBX 6 10 2 0
BITMAP
38
44
00
CC
CC
CC
CC
CC
DC
6C
ENDCHAR
STARTCHAR Scommaaccent
ENCODING 536
SWIDTH 594 0
DWIDTH 8 0
BBX 6 14 1 -5
BITMAP
78
CC
C0
E0
78
1C
0C
CC
78
00
30
30
10
20
ENDCHAR
STARTCHAR scommaaccent
ENCODING 537
SWIDTH 622 0
DWIDTH 8 0
BBX 6 12 1 -5
BITMAP
7C
C0
E0
78
1C
0C
F8
00
30
30
10
20
ENDCHAR
STARTCHAR Tcommaaccent
ENCODING 538
SWIDTH 735 0
DWIDTH 9 0
BBX 8 14 1 -5
BITMAP
FF
18
18
18
18
18
18
18
18
00
18
18
08
10
ENDCHAR
STARTCHAR tcommaaccent
ENCODING 539
SWIDTH 436 0
DWIDTH 5 0
BBX 5 14 0 -5
BITMAP
20
60
F8
60
60
60
60
60
38
00
30
30
10
20
ENDCHAR
STARTCHAR uni021E
ENCODING 542
SWIDTH 813 0
DWIDTH 10 0
BBX 7 12 2 0
BITMAP
2C
18
00
C6
C6
C6
C6
FE
C6
C6
C6
C6
ENDCHAR
STARTCHAR uni021F
ENCODING 543
SWIDTH 693 0
DWIDTH 9 0
BBX 6 13 2 0
BITMAP
B0
60
00
C0
C0
C0
D8
EC
CC
CC
CC
CC
CC
ENDCHAR
STARTCHAR uni0226
ENCODING 550
SWIDTH 773 0
DWIDTH 9 0
BBX 7 12 1 0
BITMAP
18
18
00
18
18
2C
2C
4C
7E
C6
C6
C6
ENDCHAR
STARTCHAR uni0227
ENCODING 551
SWIDTH 623 0
DWIDTH 8 0
BBX 7 10 1 0
BITMAP
30
30
00
78
CC
0C
7C
CC
CC
76
ENDCHAR
STARTCHAR uni0228
ENCODING 552
SWIDTH 645 0
DWIDTH 8 0
BBX 6 11 2 -2
BITMAP
FC
C0
C0
C0
F8
C0
C0
C0
FC
30
E0
ENDCHAR
STARTCHAR uni0229
ENCODING 553
SWIDTH 614 0
DWIDTH 8 0
BBX 6 9 1 -2
BITMAP
78
CC
CC
FC
C0
C4
78
30
E0
ENDCHAR
STARTCHAR uni022A
ENCODING 554
SWIDTH 855 0
DWIDTH 11 0
BBX 8 14 2 0
BITMAP
3C
3C
00
24
24
00
3C
66
C3
C3
C3
C3
66
3C
ENDCHAR
STARTCHAR uni022B
ENCODING 555
SWIDTH 675 0
DWIDTH 8 0
BBX 6 13 1 0
BITMAP
78
78
00
48
48
00
78
CC
CC
CC
CC
CC
78
ENDCHAR
STARTCHAR uni022C
ENCODING 556
SWIDTH 855 0
DWIDTH 11 0
BBX 8 14 2 0
BITMAP
3C
3C
00
1A
2C
00
3C
66
C3
C3
C3
C3
66
3C
ENDCHAR
STARTCHAR uni022D
ENCODING 557
SWIDTH 675 0
DWIDTH 8 0
BBX 6 13 1 0
BITMAP
78
78
00
34
58
00
78
CC
CC
CC
CC
CC
78
ENDCHAR
STARTCHAR uni022E
ENCODING 558
SWIDTH 855 0
DWIDTH 11 0
BBX 8 12 2 0
BITMAP
18
18
00
3C
66
C3
C3
C3
C3
C3
66
3C
ENDCHAR
STARTCHAR uni022F
ENCODING 559
SWIDTH 675 0
DWIDTH 8 0
BBX 6 10 1 0
BITMAP
30
30
00
78
CC
CC
CC
CC
CC
78
ENDCHAR
STARTCHAR uni0230
ENCODING 560
SWIDTH 855 0
DWIDTH 11 0
BBX 8 15 2 0
BITMAP
3C
3C
00
18
18
00
3C
66
C3
C3
C3
C3
C3
66
3C
ENDCHAR
STARTCHAR uni0231
ENCODING 561
SWIDTH 675 0
DWIDTH 8 0
BBX 6 13 1 0
BITMAP
78
78
00
30
30
00
78
CC
CC
CC
CC
CC
78
ENDCHAR
STARTCHAR uni0232
ENCODING 562
SWIDTH 738 0
DWIDTH 9 0
BBX 8 12 1 0
BITMAP
3C
3C
00
C3
C3
62
66
34
18
18
18
18
ENDCHAR
STARTCHAR uni0233
ENCODING 563
SWIDTH 645 0
DWIDTH 8 0
BBX 7 12 1 -2
BITMAP
78
78
00
C6
C6
C4
6C
68
38
30
60
60
ENDCHAR
STARTCHAR uni0250
ENCODING 592
SWIDTH 623 0
DWIDTH 8 0
BBX 7 7 1 0
BITMAP
DC
66
66
7C
60
66
3C
ENDCHAR
STARTCHAR uni0254
ENCODING 596
SWIDTH 545 0
DWIDTH 7 0
BBX 6 7 1 0
BITMAP
78
CC
0C
0C
0C
8C
78
ENDCHAR
STARTCHAR uni0258
ENCODING 600
SWIDTH 614 0
DWIDTH 8 0
BBX 6 7 1 0
BITMAP
78
CC
CC
FC
0C
8C
78
ENDCHAR
STARTCHAR uni0259
ENCODING 601
SWIDTH 614 0
DWIDTH 8 0
BBX 6 7 1 0
BITMAP
78
8C
0C
FC
CC
CC
78
ENDCHAR
STARTCHAR uni025F
ENCODING 607
SWIDTH 461 0
DWIDTH 6 0
BBX 5 10 1 -3
BITMAP
30
30
30
30
30
30
F8
30
30
E0
ENDCHAR
STARTCHAR uni0265
ENCODING 613
SWIDTH 693 0
DWIDTH 9 0
BBX 6 10 2 -3
BITMAP
CC
CC
CC
CC
CC
DC
6C
0C
0C
0C
ENDCHAR
STARTCHAR uni0275
ENCODING 629
SWIDTH 675 0
DWIDTH 8 0
BBX 6 7 1 0
BITMAP
78
CC
CC
FC
CC
CC
78
ENDCHAR
STARTCHAR uni0279
ENCODING 633
SWIDTH 500 0
DWIDTH 6 0
BBX 5 7 1 0
BITMAP
18
18
18
18
38
D8
D8
ENDCHAR
STARTCHAR uni0287
ENCODING 647
SWIDTH 436 0
DWIDTH 5 0
BBX 5 9 0 0
BITMAP
E0
30
30
30
30
30
F8
30
20
ENDCHAR
STARTCHAR uni0288
ENCODING 648
SWIDTH 436 0
DWIDTH 5 0
BBX 5 11 0 -2
BITMAP
20
60
F8
60
60
60
60
60
60
60
38
ENDCHAR
STARTCHAR uni0289
ENCODING 649
SWIDTH 693 0
DWIDTH 9 0
BBX 6 7 2 0
BITMAP
CC
CC
CC
FC
CC
DC
6C
ENDCHAR
STARTCHAR uni028C
ENCODING 652
SWIDTH 663 0
DWIDTH 8 0
BBX 6 7 1 0
BITMAP
30
30
58
58
CC
CC
CC
ENDCHAR
STARTCHAR uni028D
ENCODING 653
SWIDTH 885 0
DWIDTH 11 0
BBX 10 7 1 0
BITMAP
3300
3300
7F80
6D80
6D80
CCC0
C0C0
ENDCHAR
STARTCHAR uni028E
ENCODING 654
SWIDTH 645 0
DWIDTH 8 0
BBX 7 9 1 0
BITMAP
0C
0C
18
38
2C
6C
46
C6
C6
ENDCHAR
STARTCHAR uni029E
ENCODING 670
SWIDTH 681 0
DWIDTH 8 0
BBX 6 10 2 -3
BITMAP
CC
CC
6C
3C
2C
4C
CC
0C
0C
0C
ENDCHAR
STARTCHAR uni02BB
ENCODING 699
SWIDTH 265 0
DWIDTH 3 0
BBX 2 4 1 6
BITMAP
40
80
C0
C0
ENDCHAR
STARTCHAR afii57929
ENCODING 700
SWIDTH 265 0
DWIDTH 3 0
BBX 2 4 1 6
BITMAP
C0
C0
40
80
ENDCHAR
STARTCHAR afii64937
ENCODING 701
SWIDTH 265 0
DWIDTH 3 0
BBX 2 4 1 6
BITMAP
C0
C0
80
40
ENDCHAR
STARTCHAR circumflex
ENCODING 710
SWIDTH 675 0
DWIDTH 8 0
BBX 4 2 2 8
BITMAP
60
B0
ENDCHAR
STARTCHAR caron
ENCODING 711
SWIDTH 675 0
DWIDTH 8 0
BBX 4 2 2 8
BITMAP
B0
60
ENDCHAR
STARTCHAR uni02C8
ENCODING 712
SWIDTH 265 0
DWIDTH 3 0
BBX 2 4 1 6
BITMAP
C0
C0
80
80
ENDCHAR
STARTCHAR macron
ENCODING 713
SWIDTH 675 0
DWIDTH 8 0
BBX 4 2 2 8
BITMAP
F0
F0
ENDCHAR
STARTCHAR uni02CA
ENCODING 714
SWIDTH 675 0
DWIDTH 8 0
BBX 3 2 3 8
BITMAP
60
C0
ENDCHAR
STARTCHAR uni02CB
ENCODING 715
SWIDTH 675 0
DWIDTH 8 0
BBX 3 2 2 8
BITMAP
C0
60
ENDCHAR
STARTCHAR uni02CD
ENCODING 717
SWIDTH 675 0
DWIDTH 8 0
BBX 4 2 2 -3
BITMAP
F0
F0
ENDCHAR
STARTCHAR uni02CE
ENCODING 718
SWIDTH 675 0
DWIDTH 8 0
BBX 3 2 2 -3
BITMAP
C0
60
ENDCHAR
STARTCHAR uni02CF
ENCODING 719
SWIDTH 675 0
DWIDTH 8 0
BBX 3 2 3 -3
BITMAP
60
C0
ENDCHAR
STARTCHAR breve
ENCODING 728
SWIDTH 675 0
DWIDTH 8 0
BBX 5 2 1 8
BITMAP
88
70
ENDCHAR
STARTCHAR dotaccent
ENCODING 729
SWIDTH 675 0
DWIDTH 8 0
BBX 2 2 3 8
BITMAP
C0
C0
ENDCHAR
STARTCHAR ring
ENCODING 730
SWIDTH 675 0
DWIDTH 8 0
BBX 4 3 2 8
BITMAP
60
B0
60
ENDCHAR
STARTCHAR ogonek
ENCODING 731
SWIDTH 675 0
DWIDTH 8 0
BBX 4 2 3 -2
BITMAP
C0
70
ENDCHAR
STARTCHAR tilde
ENCODING 732
SWIDTH 675 0
DWIDTH 8 0
BBX 5 2 2 8
BITMAP
68
B0
ENDCHAR
STARTCHAR hungarumlaut
ENCODING 733
SWIDTH 675 0
DWIDTH 8 0
BBX 5 2 2 8
BITMAP
D8
90
ENDCHAR
STARTCHAR uni02EE
ENCODING 750
SWIDTH 530 0
DWIDTH 7 0
BBX 5 4 1 6
BITMAP
D8
D8
48
90
ENDCHAR
STARTCHAR uni037E
ENCODING 894
SWIDTH 343 0
DWIDTH 3 0
BBX 2 9 1 -2
BITMAP
C0
C0
00
00
00
C0
C0
40
80
ENDCHAR
STARTCHAR tonos
ENCODING 900
SWIDTH 675 0
DWIDTH 8 0
BBX 3 2 3 8
BITMAP
60
C0
ENDCHAR
STARTCHAR dieresistonos
ENCODING 901
SWIDTH 675 0
DWIDTH 8 0
BBX 4 5 2 8
BITMAP
30
60
00
90
90
ENDCHAR
STARTCHAR anoteleia
ENCODING 903
SWIDTH 343 0
DWIDTH 8 0
BBX 2 2 3 3
BITMAP
C0
C0
ENDCHAR
STARTCHAR mu
ENCODING 956
SWIDTH 699 0
DWIDTH 9 0
BBX 6 9 2 -2
BITMAP
CC
CC
CC
CC
CC
DC
EC
C0
C0
ENDCHAR
STARTCHAR uni1E00
ENCODING 7680
SWIDTH 773 0
DWIDTH 9 0
BBX 7 13 1 -4
BITMAP
18
18
2C
2C
4C
7E
C6
C6
C6
00
18
2C
18
ENDCHAR
STARTCHAR uni1E01
ENCODING 7681
SWIDTH 623 0
DWIDTH 8 0
BBX 7 11 1 -4
BITMAP
78
CC
0C
7C
CC
CC
76
00
18
2C
18
ENDCHAR
STARTCHAR uni1E02
ENCODING 7682
SWIDTH 669 0
DWIDTH 9 0
BBX 6 12 2 0
BITMAP
30
30
00
F8
CC
CC
C8
F0
C8
CC
CC
F8
ENDCHAR
STARTCHAR uni1E03
ENCODING 7683
SWIDTH 696 0
DWIDTH 9 0
BBX 6 13 2 0
BITMAP
60
60
00
C0
C0
C0
D8
EC
CC
CC
CC
CC
F8
ENDCHAR
STARTCHAR uni1E04
ENCODING 7684
SWIDTH 669 0
DWIDTH 9 0
BBX 6 12 2 -3
BITMAP
F8
CC
CC
C8
F0
C8
CC
CC
F8
00
30
30
ENDCHAR
STARTCHAR uni1E05
ENCODING 7685
SWIDTH 696 0
DWIDTH 9 0
BBX 6 13 2 -3
BITMAP
C0
C0
C0
D8
EC
CC
CC
CC
CC
F8
00
30
30
ENDCHAR
STARTCHAR uni1E06
ENCODING 7686
SWIDTH 669 0
DWIDTH 9 0
BBX 6 12 2 -3
BITMAP
F8
CC
CC
C8
F0
C8
CC
CC
F8
00
78
78
ENDCHAR
STARTCHAR uni1E07
ENCODING 7687
SWIDTH 696 0
DWIDTH 9 0
BBX 6 13 2 -3
BITMAP
C0
C0
C0
D8
EC
CC
CC
CC
CC
F8
00
78
78
ENDCHAR
STARTCHAR uni1E08
ENCODING 7688
SWIDTH 726 0
DWIDTH 9 0
BBX 7 14 2 -2
BITMAP
18
30
00
3C
66
C0
C0
C0
C0
C0
62
3C
18
70
ENDCHAR
STARTCHAR uni1E09
ENCODING 7689
SWIDTH 545 0
DWIDTH 7 0
BBX 6 12 1 -2
BITMAP
18
30
00
78
CC
C0
C0
C0
C4
78
30
E0
ENDCHAR
STARTCHAR uni1E0A
ENCODING 7690
SWIDTH 819 0
DWIDTH 10 0
BBX 7 12 2 0
BITMAP
30
30
00
F8
CC
C6
C6
C6
C6
C6
CC
F8
ENDCHAR
STARTCHAR uni1E0B
ENCODING 7691
SWIDTH 696 0
DWIDTH 8 0
BBX 6 13 1 0
BITMAP
18
18
00
0C
0C
0C
7C
CC
CC
CC
CC
DC
6C
ENDCHAR
STARTCHAR uni1E0C
ENCODING 7692
SWIDTH 819 0
DWIDTH 10 0
BBX 7 12 2 -3
BITMAP
F8
CC
C6
C6
C6
C6
C6
CC
F8
00
30
30
ENDCHAR
STARTCHAR uni1E0D
ENCODING 7693
SWIDTH 696 0
DWIDTH 8 0
BBX 6 13 1 -3
BITMAP
0C
0C
0C
7C
CC
CC
CC
CC
DC
6C
00
30
30
ENDCHAR
STARTCHAR uni1E0E
ENCODING 7694
SWIDTH 819 0
DWIDTH 10 0
BBX 7 12 2 -3
BITMAP
F8
CC
C6
C6
C6
C6
C6
CC
F8
00
78
78
ENDCHAR
STARTCHAR uni1E0F
ENCODING 7695
SWIDTH 696 0
DWIDTH 8 0
BBX 6 13 1 -3
BITMAP
0C
0C
0C
7C
CC
CC
CC
CC
DC
6C
00
78
78
ENDCHAR
STARTCHAR uni1E10
ENCODING 7696
SWIDTH 819 0
DWIDTH 10 0
BBX 7 11 2 -2
BITMAP
F8
CC
C6
C6
C6
C6
C6
CC
F8
30
E0
ENDCHAR
STARTCHAR uni1E11
ENCODING 7697
SWIDTH 696 0
DWIDTH 8 0
BBX 6 12 1 -2
BITMAP
0C
0C
0C
7C
CC
CC
CC
CC
DC
6C
30
E0
ENDCHAR
STARTCHAR uni1E12
ENCODING 7698
SWIDTH 819 0
DWIDTH 10 0
BBX 7 12 2 -3
BITMAP
F8
CC
C6
C6
C6
C6
C6
CC
F8
00
30
58
ENDCHAR
STARTCHAR uni1E13
ENCODING 7699
SWIDTH 696 0
DWIDTH 8 0
BBX 6 13 1 -3
BITMAP
0C
0C
0C
7C
CC
CC
CC
CC
DC
6C
00
30
58
ENDCHAR
STARTCHAR uni1E14
ENCODING 7700
SWIDTH 645 0
DWIDTH 8 0
BBX 6 15 2 0
BITMAP
60
30
00
F0
F0
00
FC
C0
C0
C0
F8
C0
C0
C0
FC
ENDCHAR
STARTCHAR uni1E15
ENCODING 7701
SWIDTH 614 0
DWIDTH 8 0
BBX 6 13 1 0
BITMAP
60
30
00
78
78
00
78
CC
CC
FC
C0
C4
78
ENDCHAR
STARTCHAR uni1E16
ENCODING 7702
SWIDTH 645 0
DWIDTH 8 0
BBX 6 15 2 0
BITMAP
30
60
00
F0
F0
00
FC
C0
C0
C0
F8
C0
C0
C0
FC
ENDCHAR
STARTCHAR uni1E17
ENCODING 7703
SWIDTH 614 0
DWIDTH 8 0
BBX 6 13 1 0
BITMAP
18
30
00
78
78
00
78
CC
CC
FC
C0
C4
78
ENDCHAR
STARTCHAR uni1E18
ENCODING 7704
SWIDTH 645 0
DWIDTH 8 0
BBX 6 12 2 -3
BITMAP
FC
C0
C0
C0
F8
C0
C0
C0
FC
00
60
B0
ENDCHAR
STARTCHAR uni1E19
ENCODING 7705
SWIDTH 614 0
DWIDTH 8 0
BBX 6 10 1 -3
BITMAP
78
CC
CC
FC
C0
C4
78
00
30
58
ENDCHAR
STARTCHAR uni1E1A
ENCODING 7706
SWIDTH 645 0
DWIDTH 8 0
BBX 6 12 2 -3
BITMAP
FC
C0
C0
C0
F8
C0
C0
C0
FC
00
68
B0
ENDCHAR
STARTCHAR uni1E1B
ENCODING 7707
SWIDTH 614 0
DWIDTH 8 0
BBX 6 10 1 -3
BITMAP
78
CC
CC
FC
C0
C4
78
00
68
B0
ENDCHAR
STARTCHAR uni1E1C
ENCODING 7708
SWIDTH 645 0
DWIDTH 8 0
BBX 6 14 2 -2
BITMAP
88
70
00
FC
C0
C0
C0
F8
C0
C0
C0
FC
30
E0
ENDCHAR
STARTCHAR uni1E1D
ENCODING 7709
SWIDTH 614 0
DWIDTH 8 0
BBX 6 12 1 -2
BITMAP
44
38
00
78
CC
CC
FC
C0
C4
78
30
E0
ENDCHAR
STARTCHAR uni1E1E
ENCODING 7710
SWIDTH 602 0
DWIDTH 7 0
BBX 6 12 2 0
BITMAP
60
60
00
FC
C0
C0
C0
F8
C0
C0
C0
C0
ENDCHAR
STARTCHAR uni1E1F
ENCODING 7711
SWIDTH 461 0
DWIDTH 6 0
BBX 5 13 1 0
BITMAP
30
30
00
38
60
60
F8
60
60
60
60
60
60
ENDCHAR
STARTCHAR uni1E20
ENCODING 7712
SWIDTH 759 0
DWIDTH 9 0
BBX 7 12 1 0
BITMAP
78
78
00
3C
66
C0
C0
C0
C6
C6
66
3E
ENDCHAR
STARTCHAR uni1E21
ENCODING 7713
SWIDTH 696 0
DWIDTH 8 0
BBX 6 12 1 -2
BITMAP
78
78
00
7C
CC
CC
CC
DC
6C
0C
CC
78
ENDCHAR
STARTCHAR uni1E22
ENCODING 7714
SWIDTH 813 0
DWIDTH 10 0
BBX 7 12 2 0
BITMAP
18
18
00
C6
C6
C6
C6
FE
C6
C6
C6
C6
ENDCHAR
STARTCHAR uni1E23
ENCODING 7715
SWIDTH 693 0
DWIDTH 9 0
BBX 6 13 2 0
BITMAP
60
60
00
C0
C0
C0
D8
EC
CC
CC
CC
CC
CC
ENDCHAR
STARTCHAR uni1E24
ENCODING 7716
SWIDTH 813 0
DWIDTH 10 0
BBX 7 12 2 -3
BITMAP
C6
C6
C6
C6
FE
C6
C6
C6
C6
00
18
18
ENDCHAR
STARTCHAR uni1E25
ENCODING 7717
SWIDTH 693 0
DWIDTH 9 0
BBX 6 13 2 -3
BITMAP
C0
C0
C0
D8
EC
CC
CC
CC
CC
CC
00
30
30
ENDCHAR
STARTCHAR uni1E26
ENCODING 7718
SWIDTH 813 0
DWIDTH 10 0
BBX 7 12 2 0
BITMAP
24
24
00
C6
C6
C6
C6
FE
C6
C6
C6
C6
ENDCHAR
STARTCHAR uni1E27
ENCODING 7719
SWIDTH 693 0
DWIDTH 9 0
BBX 6 13 2 0
BITMAP
90
90
00
C0
C0
C0
D8
EC
CC
CC
CC
CC
CC
ENDCHAR
STARTCHAR uni1E28
ENCODING 7720
SWIDTH 813 0
DWIDTH 10 0
BBX 7 11 2 -2
BITMAP
C6
C6
C6
C6
FE
C6
C6
C6
C6
18
70
ENDCHAR
STARTCHAR uni1E29
ENCODING 7721
SWIDTH 693 0
DWIDTH 9 0
BBX 6 12 2 -2
BITMAP
C0
C0
C0
D8
EC
CC
CC
CC
CC
CC
30
E0
ENDCHAR
STARTCHAR uni1E2A
ENCODING 7722
SWIDTH 813 0
DWIDTH 10 0
BBX 7 12 2 -3
BITMAP
C6
C6
C6
C6
FE
C6
C6
C6
C6
00
44
38
ENDCHAR
STARTCHAR uni1E2B
ENCODING 7723
SWIDTH 693 0
DWIDTH 9 0
BBX 6 13 2 -3
BITMAP
C0
C0
C0
D8
EC
CC
CC
CC
CC
CC
00
44
38
ENDCHAR
STARTCHAR uni1E2C
ENCODING 7724
SWIDTH 361 0
DWIDTH 5 0
BBX 5 12 0 -3
BITMAP
30
30
30
30
30
30
30
30
30
00
68
B0
ENDCHAR
STARTCHAR uni1E2D
ENCODING 7725
SWIDTH 361 0
DWIDTH 5 0
BBX 5 13 0 -3
BITMAP
30
30
00
30
30
30
30
30
30
30
00
68
B0
ENDCHAR
STARTCHAR uni1E2E
ENCODING 7726
SWIDTH 361 0
DWIDTH 5 0
BBX 4 14 1 0
BITMAP
30
60
00
90
90
00
60
60
60
60
60
60
60
60
ENDCHAR
STARTCHAR uni1E2F
ENCODING 7727
SWIDTH 361 0
DWIDTH 5 0
BBX 4 13 1 0
BITMAP
30
60
00
90
90
00
60
60
60
60
60
60
60
ENDCHAR
STARTCHAR uni1E30
ENCODING 7728
SWIDTH 753 0
DWIDTH 9 0
BBX 7 12 2 0
BITMAP
18
30
00
C6
CC
C8
D0
F0
D8
DC
CC
C6
ENDCHAR
STARTCHAR uni1E31
ENCODING 7729
SWIDTH 681 0
DWIDTH 8 0
BBX 6 13 2 0
BITMAP
30
60
00
C0
C0
C0
CC
C8
D0
F0
D8
CC
CC
ENDCHAR
STARTCHAR uni1E32
ENCODING 7730
SWIDTH 753 0
DWIDTH 9 0
BBX 7 12 2 -3
BITMAP
C6
CC
C8
D0
F0
D8
DC
CC
C6
00
30
30
ENDCHAR
STARTCHAR uni1E33
ENCODING 7731
SWIDTH 681 0
DWIDTH 8 0
BBX 6 13 2 -3
BITMAP
C0
C0
C0
CC
C8
D0
F0
D8
CC
CC
00
30
30
ENDCHAR
STARTCHAR uni1E34
ENCODING 7732
SWIDTH 753 0
DWIDTH 9 0
BBX 7 12 2 -3
BITMAP
C6
CC
C8
D0
F0
D8
DC
CC
C6
00
78
78
ENDCHAR
STARTCHAR uni1E35
ENCODING 7733
SWIDTH 681 0
DWIDTH 8 0
BBX 6 13 2 -3
BITMAP
C0
C0
C0
CC
C8
D0
F0
D8
CC
CC
00
78
78
ENDCHAR
STARTCHAR uni1E36
ENCODING 7734
SWIDTH 620 0
DWIDTH 8 0
BBX 6 12 2 -3
BITMAP
C0
C0
C0
C0
C0
C0
C0
C0
FC
00
60
60
ENDCHAR
STARTCHAR uni1E37
ENCODING 7735
SWIDTH 361 0
DWIDTH 5 0
BBX 2 13 2 -3
BITMAP
C0
C0
C0
C0
C0
C0
C0
C0
C0
C0
00
C0
C0
ENDCHAR
STARTCHAR uni1E38
ENCODING 7736
SWIDTH 620 0
DWIDTH 8 0
BBX 6 15 2 -3
BITMAP
F0
F0
00
C0
C0
C0
C0
C0
C0
C0
C0
FC
00
60
60
ENDCHAR
STARTCHAR uni1E39
ENCODING 7737
SWIDTH 361 0
DWIDTH 5 0
BBX 4 16 1 -3
BITMAP
F0
F0
00
60
60
60
60
60
60
60
60
60
60
00
60
60
ENDCHAR
STARTCHAR uni1E3A
ENCODING 7738
SWIDTH 620 0
DWIDTH 8 0
BBX 6 12 2 -3
BITMAP
C0
C0
C0
C0
C0
C0
C0
C0
FC
00
F0
F0
ENDCHAR
STARTCHAR uni1E3B
ENCODING 7739
SWIDTH 361 0
DWIDTH 5 0
BBX 4 13 1 -3
BITMAP
60
60
60
60
60
60
60
60
60
60
00
F0
F0
ENDCHAR
STARTCHAR uni1E3C
ENCODING 7740
SWIDTH 620 0
DWIDTH 8 0
BBX 6 12 2 -3
BITMAP
C0
C0
C0
C0
C0
C0
C0
C0
FC
00
60
B0
ENDCHAR
STARTCHAR uni1E3D
ENCODING 7741
SWIDTH 361 0
DWIDTH 5 0
BBX 4 13 1 -3
BITMAP
60
60
60
60
60
60
60
60
60
60
00
60
B0
ENDCHAR
STARTCHAR uni1E3E
ENCODING 7742
SWIDTH 940 0
DWIDTH 12 0
BBX 9 12 2 0
BITMAP
0C00
1800
0000
E380
E380
E380
B580
B580
B580
9980
9980
8180
ENDCHAR
STARTCHAR uni1E3F
ENCODING 7743
SWIDTH 1006 0
DWIDTH 13 0
BBX 10 10 2 0
BITMAP
0600
0C00
0000
D980
EEC0
CCC0
CCC0
CCC0
CCC0
CCC0
ENDCHAR
STARTCHAR uni1E40
ENCODING 7744
SWIDTH 940 0
DWIDTH 12 0
BBX 9 12 2 0
BITMAP
0C00
0C00
0000
E380
E380
E380
B580
B580
B580
9980
9980
8180
ENDCHAR
STARTCHAR uni1E41
ENCODING 7745
SWIDTH 1006 0
DWIDTH 13 0
BBX 10 10 2 0
BITMAP
0C00
0C00
0000
D980
EEC0
CCC0
CCC0
CCC0
CCC0
CCC0
ENDCHAR
STARTCHAR uni1E42
ENCODING 7746
SWIDTH 940 0
DWIDTH 12 0
BBX 9 12 2 -3
BITMAP
E380
E380
E380
B580
B580
B580
9980
9980
8180
0000
0C00
0C00
ENDCHAR
STARTCHAR uni1E43
ENCODING 7747
SWIDTH 1006 0
DWIDTH 13 0
BBX 10 10 2 -3
BITMAP
D980
EEC0
CCC0
CCC0
CCC0
CCC0
CCC0
0000
0C00
0C00
ENDCHAR
STARTCHAR uni1E44
ENCODING 7748
SWIDTH 783 0
DWIDTH 10 0
BBX 7 12 2 0
BITMAP
30
30
00
E2
E2
B2
B2
BA
9A
8E
8E
86
ENDCHAR
STARTCHAR uni1E45
ENCODING 7749
SWIDTH 693 0
DWIDTH 9 0
BBX 6 10 2 0
BITMAP
30
30
00
D8
EC
CC
CC
CC
CC
CC
ENDCHAR
STARTCHAR uni1E46
ENCODING 7750
SWIDTH 783 0
DWIDTH 10 0
BBX 7 12 2 -3
BITMAP
E2
E2
B2
B2
BA
9A
8E
8E
86
00
18
18
ENDCHAR
STARTCHAR uni1E47
ENCODING 7751
SWIDTH 693 0
DWIDTH 9 0
BBX 6 10 2 -3
BITMAP
D8
EC
CC
CC
CC
CC
CC
00
30
30
ENDCHAR
STARTCHAR uni1E48
ENCODING 7752
SWIDTH 783 0
DWIDTH 10 0
BBX 7 12 2 -3
BITMAP
E2
E2
B2
B2
BA
9A
8E
8E
86
00
3C
3C
ENDCHAR
STARTCHAR uni1E49
ENCODING 7753
SWIDTH 693 0
DWIDTH 9 0
BBX 6 10 2 -3
BITMAP
D8
EC
CC
CC
CC
CC
CC
00
78
78
ENDCHAR
STARTCHAR uni1E4A
ENCODING 7754
SWIDTH 783 0
DWIDTH 10 0
BBX 7 12 2 -3
BITMAP
E2
E2
B2
B2
BA
9A
8E
8E
86
00
18
2C
ENDCHAR
STARTCHAR uni1E4B
ENCODING 7755
SWIDTH 693 0
DWIDTH 9 0
BBX 6 10 2 -3
BITMAP
D8
EC
CC
CC
CC
CC
CC
00
30
58
ENDCHAR
STARTCHAR uni1E4C
ENCODING 7756
SWIDTH 855 0
DWIDTH 11 0
BBX 8 14 2 0
BITMAP
0C
18
00
1A
2C
00
3C
66
C3
C3
C3
C3
66
3C
ENDCHAR
STARTCHAR uni1E4D
ENCODING 7757
SWIDTH 675 0
DWIDTH 8 0
BBX 6 13 1 0
BITMAP
18
30
00
34
58
00
78
CC
CC
CC
CC
CC
78
ENDCHAR
STARTCHAR uni1E4E
ENCODING 7758
SWIDTH 855 0
DWIDTH 11 0
BBX 8 14 2 0
BITMAP
24
24
00
1A
2C
00
3C
66
C3
C3
C3
C3
66
3C
ENDCHAR
STARTCHAR uni1E4F
ENCODING 7759
SWIDTH 675 0
DWIDTH 8 0
BBX 6 13 1 0
BITMAP
48
48
00
34
58
00
78
CC
CC
CC
CC
CC
78
ENDCHAR
STARTCHAR uni1E50
ENCODING 7760
SWIDTH 855 0
DWIDTH 11 0
BBX 8 15 2 0
BITMAP
30
18
00
3C
3C
00
3C
66
C3
C3
C3
C3
C3
66
3C
ENDCHAR
STARTCHAR uni1E51
ENCODING 7761
SWIDTH 675 0
DWIDTH 8 0
BBX 6 13 1 0
BITMAP
60
30
00
78
78
00
78
CC
CC
CC
CC
CC
78
ENDCHAR
STARTCHAR uni1E52
ENCODING 7762
SWIDTH 855 0
DWIDTH 11 0
BBX 8 15 2 0
BITMAP
0C
18
00
3C
3C
00
3C
66
C3
C3
C3
C3
C3
66
3C
ENDCHAR
STARTCHAR uni1E53
ENCODING 7763
SWIDTH 675 0
DWIDTH 8 0
BBX 6 13 1 0
BITMAP
18
30
00
78
78
00
78
CC
CC
CC
CC
CC
78
ENDCHAR
STARTCHAR uni1E54
ENCODING 7764
SWIDTH 657 0
DWIDTH 8 0
BBX 6 12 2 0
BITMAP
18
30
00
F8
CC
CC
CC
C8
F0
C0
C0
C0
ENDCHAR
STARTCHAR uni1E55
ENCODING 7765
SWIDTH 696 0
DWIDTH 9 0
BBX 6 12 2 -2
BITMAP
18
30
00
D8
EC
CC
CC
CC
CC
F8
C0
C0
ENDCHAR
STARTCHAR uni1E56
ENCODING 7766
SWIDTH 657 0
DWIDTH 8 0
BBX 6 12 2 0
BITMAP
30
30
00
F8
CC
CC
CC
C8
F0
C0
C0
C0
ENDCHAR
STARTCHAR uni1E57
ENCODING 7767
SWIDTH 696 0
DWIDTH 9 0
BBX 6 12 2 -2
BITMAP
30
30
00
D8
EC
CC
CC
CC
CC
F8
C0
C0
ENDCHAR
STARTCHAR uni1E58
ENCODING 7768
SWIDTH 734 0
DWIDTH 9 0
BBX 7 12 2 0
BITMAP
30
30
00
F8
CC
CC
C8
F0
D8
D8
CC
CE
ENDCHAR
STARTCHAR uni1E59
ENCODING 7769
SWIDTH 500 0
DWIDTH 6 0
BBX 5 10 1 0
BITMAP
30
30
00
D8
D8
E0
C0
C0
C0
C0
ENDCHAR
STARTCHAR uni1E5A
ENCODING 7770
SWIDTH 734 0
DWIDTH 9 0
BBX 7 12 2 -3
BITMAP
F8
CC
CC
C8
F0
D8
D8
CC
CE
00
30
30
ENDCHAR
STARTCHAR uni1E5B
ENCODING 7771
SWIDTH 500 0
DWIDTH 6 0
BBX 5 10 1 -3
BITMAP
D8
D8
E0
C0
C0
C0
C0
00
60
60
ENDCHAR
STARTCHAR uni1E5C
ENCODING 7772
SWIDTH 734 0
DWIDTH 9 0
BBX 7 15 2 -3
BITMAP
78
78
00
F8
CC
CC
C8
F0
D8
D8
CC
CE
00
30
30
ENDCHAR
STARTCHAR uni1E5D
ENCODING 7773
SWIDTH 500 0
DWIDTH 6 0
BBX 5 13 1 -3
BITMAP
F0
F0
00
D8
D8
E0
C0
C0
C0
C0
00
60
60
ENDCHAR
STARTCHAR uni1E5E
ENCODING 7774
SWIDTH 734 0
DWIDTH 9 0
BBX 7 12 2 -3
BITMAP
F8
CC
CC
C8
F0
D8
D8
CC
CE
00
78
78
ENDCHAR
STARTCHAR uni1E5F
ENCODING 7775
SWIDTH 500 0
DWIDTH 6 0
BBX 5 10 1 -3
BITMAP
D8
D8
E0
C0
C0
C0
C0
00
F0
F0
ENDCHAR
STARTCHAR uni1E60
ENCODING 7776
SWIDTH 594 0
DWIDTH 8 0
BBX 6 12 1 0
BITMAP
30
30
00
78
CC
C0
E0
78
1C
0C
CC
78
ENDCHAR
STARTCHAR uni1E61
ENCODING 7777
SWIDTH 622 0
DWIDTH 8 0
BBX 6 10 1 0
BITMAP
30
30
00
7C
C0
E0
78
1C
0C
F8
ENDCHAR
STARTCHAR uni1E62
ENCODING 7778
SWIDTH 594 0
DWIDTH 8 0
BBX 6 12 1 -3
BITMAP
78
CC
C0
E0
78
1C
0C
CC
78
00
30
30
ENDCHAR
STARTCHAR uni1E63
ENCODING 7779
SWIDTH 622 0
DWIDTH 8 0
BBX 6 10 1 -3
BITMAP
7C
C0
E0
78
1C
0C
F8
00
30
30
ENDCHAR
STARTCHAR uni1E64
ENCODING 7780
SWIDTH 594 0
DWIDTH 8 0
BBX 6 15 1 0
BITMAP
30
30
00
18
30
00
78
CC
C0
E0
78
1C
0C
CC
78
ENDCHAR
STARTCHAR uni1E65
ENCODING 7781
SWIDTH 622 0
DWIDTH 8 0
BBX 6 13 1 0
BITMAP
30
30
00
18
30
00
7C
C0
E0
78
1C
0C
F8
ENDCHAR
STARTCHAR uni1E66
ENCODING 7782
SWIDTH 594 0
DWIDTH 8 0
BBX 6 14 1 0
BITMAP
30
30
00
58
30
00
78
CC
C0
F8
7C
0C
CC
78
ENDCHAR
STARTCHAR uni1E67
ENCODING 7783
SWIDTH 622 0
DWIDTH 8 0
BBX 6 13 1 0
BITMAP
30
30
00
58
30
00
7C
C0
E0
78
1C
0C
F8
ENDCHAR
STARTCHAR uni1E68
ENCODING 7784
SWIDTH 594 0
DWIDTH 8 0
BBX 6 15 1 -3
BITMAP
30
30
00
78
CC
C0
E0
78
1C
0C
CC
78
00
30
30
ENDCHAR
STARTCHAR uni1E69
ENCODING 7785
SWIDTH 622 0
DWIDTH 8 0
BBX 6 13 1 -3
BITMAP
30
30
00
7C
C0
E0
78
1C
0C
F8
00
30
30
ENDCHAR
STARTCHAR uni1E6A
ENCODING 7786
SWIDTH 735 0
DWIDTH 9 0
BBX 8 12 1 0
BITMAP
18
18
00
FF
18
18
18
18
18
18
18
18
ENDCHAR
STARTCHAR uni1E6B
ENCODING 7787
SWIDTH 436 0
DWIDTH 5 0
BBX 5 12 0 0
BITMAP
60
60
00
20
60
F8
60
60
60
60
60
38
ENDCHAR
STARTCHAR uni1E6C
ENCODING 7788
SWIDTH 735 0
DWIDTH 9 0
BBX 8 12 1 -3
BITMAP
FF
18
18
18
18
18
18
18
18
00
18
18
ENDCHAR
STARTCHAR uni1E6D
ENCODING 7789
SWIDTH 436 0
DWIDTH 5 0
BBX 5 12 0 -3
BITMAP
20
60
F8
60
60
60
60
60
38
00
30
30
ENDCHAR
STARTCHAR uni1E6E
ENCODING 7790
SWIDTH 735 0
DWIDTH 9 0
BBX 8 12 1 -3
BITMAP
FF
18
18
18
18
18
18
18
18
00
3C
3C
ENDCHAR
STARTCHAR uni1E6F
ENCODING 7791
SWIDTH 436 0
DWIDTH 5 0
BBX 5 12 0 -3
BITMAP
20
60
F8
60
60
60
60
60
38
00
78
78
ENDCHAR
STARTCHAR uni1E70
ENCODING 7792
SWIDTH 735 0
DWIDTH 9 0
BBX 8 12 1 -3
BITMAP
FF
18
18
18
18
18
18
18
18
00
18
2C
ENDCHAR
STARTCHAR uni1E71
ENCODING 7793
SWIDTH 436 0
DWIDTH 5 0
BBX 5 12 0 -3
BITMAP
20
60
F8
60
60
60
60
60
38
00
30
58
ENDCHAR
STARTCHAR uni1E72
ENCODING 7794
SWIDTH 783 0
DWIDTH 10 0
BBX 7 12 2 -3
BITMAP
C6
C6
C6
C6
C6
C6
C6
6C
38
00
24
24
ENDCHAR
STARTCHAR uni1E73
ENCODING 7795
SWIDTH 693 0
DWIDTH 9 0
BBX 6 10 2 -3
BITMAP
CC
CC
CC
CC
CC
DC
6C
00
48
48
ENDCHAR
STARTCHAR uni1E74
ENCODING 7796
SWIDTH 783 0
DWIDTH 10 0
BBX 7 12 2 -3
BITMAP
C6
C6
C6
C6
C6
C6
C6
6C
38
00
34
58
ENDCHAR
STARTCHAR uni1E75
ENCODING 7797
SWIDTH 693 0
DWIDTH 9 0
BBX 6 10 2 -3
BITMAP
CC
CC
CC
CC
CC
DC
6C
00
68
B0
ENDCHAR
STARTCHAR uni1E76
ENCODING 7798
SWIDTH 783 0
DWIDTH 10 0
BBX 7 12 2 -3
BITMAP
C6
C6
C6
C6
C6
C6
C6
6C
38
00
18
2C
ENDCHAR
STARTCHAR uni1E77
ENCODING 7799
SWIDTH 693 0
DWIDTH 9 0
BBX 6 10 2 -3
BITMAP
CC
CC
CC
CC
CC
DC
6C
00
30
58
ENDCHAR
STARTCHAR uni1E78
ENCODING 7800
SWIDTH 783 0
DWIDTH 10 0
BBX 7 15 2 0
BITMAP
18
30
00
34
58
00
C6
C6
C6
C6
C6
C6
C6
6C
38
ENDCHAR
STARTCHAR uni1E79
ENCODING 7801
SWIDTH 693 0
DWIDTH 9 0
BBX 6 13 2 0
BITMAP
18
30
00
34
58
00
CC
CC
CC
CC
CC
DC
6C
ENDCHAR
STARTCHAR uni1E7A
ENCODING 7802
SWIDTH 783 0
DWIDTH 10 0
BBX 7 15 2 0
BITMAP
24
24
00
3C
3C
00
C6
C6
C6
C6
C6
C6
C6
6C
38
ENDCHAR
STARTCHAR uni1E7B
ENCODING 7803
SWIDTH 693 0
DWIDTH 9 0
BBX 6 13 2 0
BITMAP
48
48
00
78
78
00
CC
CC
CC
CC
CC
DC
6C
ENDCHAR
STARTCHAR uni1E7C
ENCODING 7804
SWIDTH 735 0
DWIDTH 9 0
BBX 8 12 1 0
BITMAP
1A
2C
00
C3
C3
C3
62
66
34
3C
18
18
ENDCHAR
STARTCHAR uni1E7D
ENCODING 7805
SWIDTH 663 0
DWIDTH 8 0
BBX 6 10 1 0
BITMAP
34
58
00
CC
CC
CC
68
68
30
30
ENDCHAR
STARTCHAR uni1E7E
ENCODING 7806
SWIDTH 735 0
DWIDTH 9 0
BBX 8 12 1 -3
BITMAP
C3
C3
C3
62
66
34
3C
18
18
00
18
18
ENDCHAR
STARTCHAR uni1E7F
ENCODING 7807
SWIDTH 663 0
DWIDTH 8 0
BBX 6 10 1 -3
BITMAP
CC
CC
CC
68
68
30
30
00
30
30
ENDCHAR
STARTCHAR Wgrave
ENCODING 7808
SWIDTH 940 0
DWIDTH 12 0
BBX 10 12 1 0
BITMAP
1800
0C00
0000
C0C0
CCC0
CCC0
6D80
6D80
7F80
3300
3300
3300
ENDCHAR
STARTCHAR wgrave
ENCODING 7809
SWIDTH 885 0
DWIDTH 11 0
BBX 10 10 1 0
BITMAP
1800
0C00
0000
C0C0
CCC0
6D80
6D80
7F80
3300
3300
ENDCHAR
STARTCHAR Wacute
ENCODING 7810
SWIDTH 940 0
DWIDTH 12 0
BBX 10 12 1 0
BITMAP
0600
0C00
0000
C0C0
CCC0
CCC0
6D80
6D80
7F80
3300
3300
3300
ENDCHAR
STARTCHAR wacute
ENCODING 7811
SWIDTH 885 0
DWIDTH 11 0
BBX 10 10 1 0
BITMAP
0600
0C00
0000
C0C0
CCC0
6D80
6D80
7F80
3300
3300
ENDCHAR
STARTCHAR Wdieresis
ENCODING 7812
SWIDTH 940 0
DWIDTH 12 0
BBX 10 12 1 0
BITMAP
1200
1200
0000
C0C0
CCC0
CCC0
6D80
6D80
7F80
3300
3300
3300
ENDCHAR
STARTCHAR wdieresis
ENCODING 7813
SWIDTH 885 0
DWIDTH 11 0
BBX 10 10 1 0
BITMAP
1200
1200
0000
C0C0
CCC0
6D80
6D80
7F80
3300
3300
ENDCHAR
STARTCHAR uni1E86
ENCODING 7814
SWIDTH 940 0
DWIDTH 12 0
BBX 10 12 1 0
BITMAP
0C00
0C00
0000
C0C0
CCC0
CCC0
6D80
6D80
7F80
3300
3300
3300
ENDCHAR
STARTCHAR uni1E87
ENCODING 7815
SWIDTH 885 0
DWIDTH 11 0
BBX 10 10 1 0
BITMAP
0C00
0C00
0000
C0C0
CCC0
6D80
6D80
7F80
3300
3300
ENDCHAR
STARTCHAR uni1E88
ENCODING 7816
SWIDTH 940 0
DWIDTH 12 0
BBX 10 12 1 -3
BITMAP
C0C0
CCC0
CCC0
6D80
6D80
7F80
3300
3300
3300
0000
0C00
0C00
ENDCHAR
STARTCHAR uni1E89
ENCODING 7817
SWIDTH 885 0
DWIDTH 11 0
BBX 10 10 1 -3
BITMAP
C0C0
CCC0
6D80
6D80
7F80
3300
3300
0000
0C00
0C00
ENDCHAR
STARTCHAR uni1E8A
ENCODING 7818
SWIDTH 699 0
DWIDTH 9 0
BBX 7 12 1 0
BITMAP
18
18
00
C6
C6
6C
78
38
6C
6C
C6
C6
ENDCHAR
STARTCHAR uni1E8B
ENCODING 7819
SWIDTH 568 0
DWIDTH 7 0
BBX 6 10 1 0
BITMAP
30
30
00
CC
CC
68
30
58
CC
CC
ENDCHAR
STARTCHAR uni1E8C
ENCODING 7820
SWIDTH 699 0
DWIDTH 9 0
BBX 7 12 1 0
BITMAP
24
24
00
C6
C6
6C
78
38
6C
6C
C6
C6
ENDCHAR
STARTCHAR uni1E8D
ENCODING 7821
SWIDTH 568 0
DWIDTH 7 0
BBX 6 10 1 0
BITMAP
48
48
00
CC
CC
68
30
58
CC
CC
ENDCHAR
STARTCHAR uni1E8E
ENCODING 7822
SWIDTH 738 0
DWIDTH 9 0
BBX 8 12 1 0
BITMAP
18
18
00
C3
C3
62
66
34
18
18
18
18
ENDCHAR
STARTCHAR uni1E8F
ENCODING 7823
SWIDTH 645 0
DWIDTH 8 0
BBX 7 12 1 -2
BITMAP
30
30
00
C6
C6
C4
6C
68
38
30
60
60
ENDCHAR
STARTCHAR uni1E90
ENCODING 7824
SWIDTH 675 0
DWIDTH 8 0
BBX 6 12 1 0
BITMAP
30
58
00
FC
0C
18
38
30
60
60
C0
FC
ENDCHAR
STARTCHAR uni1E91
ENCODING 7825
SWIDTH 608 0
DWIDTH 7 0
BBX 5 10 1 0
BITMAP
30
58
00
F8
18
30
70
60
C0
F8
ENDCHAR
STARTCHAR uni1E92
ENCODING 7826
SWIDTH 675 0
DWIDTH 8 0
BBX 6 12 1 -3
BITMAP
FC
0C
18
38
30
60
60
C0
FC
00
30
30
ENDCHAR
STARTCHAR uni1E93
ENCODING 7827
SWIDTH 608 0
DWIDTH 7 0
BBX 5 10 1 -3
BITMAP
F8
18
30
70
60
C0
F8
00
60
60
ENDCHAR
STARTCHAR uni1E94
ENCODING 7828
SWIDTH 675 0
DWIDTH 8 0
BBX 6 12 1 -3
BITMAP
FC
0C
18
38
30
60
60
C0
FC
00
78
78
ENDCHAR
STARTCHAR uni1E95
ENCODING 7829
SWIDTH 608 0
DWIDTH 7 0
BBX 5 10 1 -3
BITMAP
F8
18
30
70
60
C0
F8
00
F0
F0
ENDCHAR
STARTCHAR uni1E96
ENCODING 7830
SWIDTH 693 0
DWIDTH 9 0
BBX 6 13 2 -3
BITMAP
C0
C0
C0
D8
EC
CC
CC
CC
CC
CC
00
78
78
ENDCHAR
STARTCHAR uni1E97
ENCODING 7831
SWIDTH 436 0
DWIDTH 5 0
BBX 5 12 0 0
BITMAP
90
90
00
20
60
F8
60
60
60
60
60
38
ENDCHAR
STARTCHAR uni1E98
ENCODING 7832
SWIDTH 885 0
DWIDTH 11 0
BBX 10 11 1 0
BITMAP
0C00
1600
0C00
0000
C0C0
CCC0
6D80
6D80
7F80
3300
3300
ENDCHAR
STARTCHAR uni1E99
ENCODING 7833
SWIDTH 645 0
DWIDTH 8 0
BBX 7 13 1 -2
BITMAP
30
58
30
00
C6
C6
C4
6C
68
38
30
60
60
ENDCHAR
STARTCHAR uni1EA0
ENCODING 7840
SWIDTH 773 0
DWIDTH 9 0
BBX 7 12 1 -3
BITMAP
18
18
2C
2C
4C
7E
C6
C6
C6
00
18
18
ENDCHAR
STARTCHAR uni1EA1
ENCODING 7841
SWIDTH 623 0
DWIDTH 8 0
BBX 7 10 1 -3
BITMAP
78
CC
0C
7C
CC
CC
76
00
18
18
ENDCHAR
STARTCHAR uni1EA4
ENCODING 7844
SWIDTH 773 0
DWIDTH 9 0
BBX 7 14 1 0
BITMAP
0C
18
00
18
2C
00
18
2C
2C
4C
7E
C6
C6
C6
ENDCHAR
STARTCHAR uni1EA5
ENCODING 7845
SWIDTH 623 0
DWIDTH 8 0
BBX 7 13 1 0
BITMAP
18
30
00
30
58
00
78
CC
0C
7C
CC
CC
76
ENDCHAR
STARTCHAR uni1EA6
ENCODING 7846
SWIDTH 773 0
DWIDTH 9 0
BBX 7 14 1 0
BITMAP
30
18
00
18
2C
00
18
2C
2C
4C
7E
C6
C6
C6
ENDCHAR
STARTCHAR uni1EA7
ENCODING 7847
SWIDTH 623 0
DWIDTH 8 0
BBX 7 13 1 0
BITMAP
60
30
00
30
58
00
78
CC
0C
7C
CC
CC
76
ENDCHAR
STARTCHAR uni1EAA
ENCODING 7850
SWIDTH 773 0
DWIDTH 9 0
BBX 7 14 1 0
BITMAP
1A
2C
00
18
2C
00
18
2C
2C
4C
7E
C6
C6
C6
ENDCHAR
STARTCHAR uni1EAB
ENCODING 7851
SWIDTH 623 0
DWIDTH 8 0
BBX 7 13 1 0
BITMAP
34
58
00
30
58
00
78
CC
0C
7C
CC
CC
76
ENDCHAR
STARTCHAR uni1EAC
ENCODING 7852
SWIDTH 773 0
DWIDTH 9 0
BBX 7 15 1 -3
BITMAP
18
2C
00
18
18
2C
2C
4C
7E
C6
C6
C6
00
18
18
ENDCHAR
STARTCHAR uni1EAD
ENCODING 7853
SWIDTH 623 0
DWIDTH 8 0
BBX 7 13 1 -3
BITMAP
30
58
00
78
CC
0C
7C
CC
CC
76
00
18
18
ENDCHAR
STARTCHAR uni1EAE
ENCODING 7854
SWIDTH 773 0
DWIDTH 9 0
BBX 7 15 1 0
BITMAP
18
30
00
44
38
00
18
18
2C
2C
4C
7E
C6
C6
C6
ENDCHAR
STARTCHAR uni1EAF
ENCODING 7855
SWIDTH 623 0
DWIDTH 8 0
BBX 7 13 1 0
BITMAP
18
30
00
44
38
00
78
CC
0C
7C
CC
CC
76
ENDCHAR
STARTCHAR uni1EB0
ENCODING 7856
SWIDTH 773 0
DWIDTH 9 0
BBX 7 15 1 0
BITMAP
30
18
00
44
38
00
18
18
2C
2C
4C
7E
C6
C6
C6
ENDCHAR
STARTCHAR uni1EB1
ENCODING 7857
SWIDTH 623 0
DWIDTH 8 0
BBX 7 13 1 0
BITMAP
30
18
00
44
38
00
78
CC
0C
7C
CC
CC
76
ENDCHAR
STARTCHAR uni1EB4
ENCODING 7860
SWIDTH 773 0
DWIDTH 9 0
BBX 7 15 1 0
BITMAP
34
58
00
44
38
00
18
18
2C
2C
4C
7E
C6
C6
C6
ENDCHAR
STARTCHAR uni1EB5
ENCODING 7861
SWIDTH 623 0
DWIDTH 8 0
BBX 7 13 1 0
BITMAP
34
58
00
44
38
00
78
CC
0C
7C
CC
CC
76
ENDCHAR
STARTCHAR uni1EB6
ENCODING 7862
SWIDTH 773 0
DWIDTH 9 0
BBX 7 15 1 -3
BITMAP
44
38
00
18
18
2C
2C
4C
7E
C6
C6
C6
00
18
18
ENDCHAR
STARTCHAR uni1EB7
ENCODING 7863
SWIDTH 623 0
DWIDTH 8 0
BBX 7 13 1 -3
BITMAP
44
38
00
78
CC
0C
7C
CC
CC
76
00
18
18
ENDCHAR
STARTCHAR uni1EB8
ENCODING 7864
SWIDTH 645 0
DWIDTH 8 0
BBX 6 12 2 -3
BITMAP
FC
C0
C0
C0
F8
C0
C0
C0
FC
00
60
60
ENDCHAR
STARTCHAR uni1EB9
ENCODING 7865
SWIDTH 614 0
DWIDTH 8 0
BBX 6 10 1 -3
BITMAP
78
CC
CC
FC
C0
C4
78
00
30
30
ENDCHAR
STARTCHAR uni1EBC
ENCODING 7868
SWIDTH 645 0
DWIDTH 8 0
BBX 6 12 2 0
BITMAP
68
B0
00
FC
C0
C0
C0
F8
C0
C0
C0
FC
ENDCHAR
STARTCHAR uni1EBD
ENCODING 7869
SWIDTH 614 0
DWIDTH 8 0
BBX 6 10 1 0
BITMAP
34
58
00
78
CC
CC
FC
C0
C4
78
ENDCHAR
STARTCHAR uni1EBE
ENCODING 7870
SWIDTH 645 0
DWIDTH 8 0
BBX 6 14 2 0
BITMAP
18
30
00
30
58
00
FC
C0
C0
F8
C0
C0
C0
FC
ENDCHAR
STARTCHAR uni1EBF
ENCODING 7871
SWIDTH 614 0
DWIDTH 8 0
BBX 6 13 1 0
BITMAP
18
30
00
30
58
00
78
CC
CC
FC
C0
C4
78
ENDCHAR
STARTCHAR uni1EC0
ENCODING 7872
SWIDTH 645 0
DWIDTH 8 0
BBX 6 14 2 0
BITMAP
60
30
00
30
58
00
FC
C0
C0
F8
C0
C0
C0
FC
ENDCHAR
STARTCHAR uni1EC1
ENCODING 7873
SWIDTH 614 0
DWIDTH 8 0
BBX 6 13 1 0
BITMAP
60
30
00
30
58
00
78
CC
CC
FC
C0
C4
78
ENDCHAR
STARTCHAR uni1EC4
ENCODING 7876
SWIDTH 645 0
DWIDTH 8 0
BBX 6 14 2 0
BITMAP
34
58
00
30
58
00
FC
C0
C0
F8
C0
C0
C0
FC
ENDCHAR
STARTCHAR uni1EC5
ENCODING 7877
SWIDTH 614 0
DWIDTH 8 0
BBX 6 13 1 0
BITMAP
34
58
00
30
58
00
78
CC
CC
FC
C0
C4
78
ENDCHAR
STARTCHAR uni1EC6
ENCODING 7878
SWIDTH 645 0
DWIDTH 8 0
BBX 6 15 2 -3
BITMAP
60
B0
00
FC
C0
C0
C0
F8
C0
C0
C0
FC
00
60
60
ENDCHAR
STARTCHAR uni1EC7
ENCODING 7879
SWIDTH 614 0
DWIDTH 8 0
BBX 6 13 1 -3
BITMAP
30
58
00
78
CC
CC
FC
C0
C4
78
00
30
30
ENDCHAR
STARTCHAR uni1ECA
ENCODING 7882
SWIDTH 361 0
DWIDTH 5 0
BBX 2 12 2 -3
BITMAP
C0
C0
C0
C0
C0
C0
C0
C0
C0
00
C0
C0
ENDCHAR
STARTCHAR uni1ECB
ENCODING 7883
SWIDTH 361 0
DWIDTH 5 0
BBX 2 13 2 -3
BITMAP
C0
C0
00
C0
C0
C0
C0
C0
C0
C0
00
C0
C0
ENDCHAR
STARTCHAR uni1ECC
ENCODING 7884
SWIDTH 855 0
DWIDTH 11 0
BBX 8 12 2 -3
BITMAP
3C
66
C3
C3
C3
C3
C3
66
3C
00
18
18
ENDCHAR
STARTCHAR uni1ECD
ENCODING 7885
SWIDTH 675 0
DWIDTH 8 0
BBX 6 10 1 -3
BITMAP
78
CC
CC
CC
CC
CC
78
00
30
30
ENDCHAR
STARTCHAR uni1ED0
ENCODING 7888
SWIDTH 855 0
DWIDTH 11 0
BBX 8 14 2 0
BITMAP
0C
18
00
18
2C
00
3C
66
C3
C3
C3
C3
66
3C
ENDCHAR
STARTCHAR uni1ED1
ENCODING 7889
SWIDTH 675 0
DWIDTH 8 0
BBX 6 13 1 0
BITMAP
18
30
00
30
58
00
78
CC
CC
CC
CC
CC
78
ENDCHAR
STARTCHAR uni1ED2
ENCODING 7890
SWIDTH 855 0
DWIDTH 11 0
BBX 8 14 2 0
BITMAP
30
18
00
18
2C
00
3C
66
C3
C3
C3
C3
66
3C
ENDCHAR
STARTCHAR uni1ED3
ENCODING 7891
SWIDTH 675 0
DWIDTH 8 0
BBX 6 13 1 0
BITMAP
60
30
00
30
58
00
78
CC
CC
CC
CC
CC
78
ENDCHAR
STARTCHAR uni1ED6
ENCODING 7894
SWIDTH 855 0
DWIDTH 11 0
BBX 8 14 2 0
BITMAP
1A
2C
00
18
2C
00
3C
66
C3
C3
C3
C3
66
3C
ENDCHAR
STARTCHAR uni1ED7
ENCODING 7895
SWIDTH 675 0
DWIDTH 8 0
BBX 6 13 1 0
BITMAP
34
58
00
30
58
00
78
CC
CC
CC
CC
CC
78
ENDCHAR
STARTCHAR uni1ED8
ENCODING 7896
SWIDTH 855 0
DWIDTH 11 0
BBX 8 15 2 -3
BITMAP
18
2C
00
3C
66
C3
C3
C3
C3
C3
66
3C
00
18
18
ENDCHAR
STARTCHAR uni1ED9
ENCODING 7897
SWIDTH 675 0
DWIDTH 8 0
BBX 6 13 1 -3
BITMAP
30
58
00
78
CC
CC
CC
CC
CC
78
00
30
30
ENDCHAR
STARTCHAR uni1EDA
ENCODING 7898
SWIDTH 855 0
DWIDTH 11 0
BBX 10 12 2 0
BITMAP
0600
0C00
0000
3CC0
66C0
C340
C380
C300
C300
C300
6600
3C00
ENDCHAR
STARTCHAR uni1EDB
ENCODING 7899
SWIDTH 675 0
DWIDTH 8 0
BBX 8 10 1 0
BITMAP
0C
18
00
7B
CF
CD
CE
CC
CC
78
ENDCHAR
STARTCHAR uni1EDC
ENCODING 7900
SWIDTH 855 0
DWIDTH 11 0
BBX 10 12 2 0
BITMAP
0C00
0600
0000
3CC0
66C0
C340
C380
C300
C300
C300
6600
3C00
ENDCHAR
STARTCHAR uni1EDD
ENCODING 7901
SWIDTH 675 0
DWIDTH 8 0
BBX 8 10 1 0
BITMAP
30
18
00
7B
CF
CD
CE
CC
CC
78
ENDCHAR
STARTCHAR uni1EE0
ENCODING 7904
SWIDTH 855 0
DWIDTH 11 0
BBX 10 12 2 0
BITMAP
0D00
1600
0000
3CC0
66C0
C340
C380
C300
C300
C300
6600
3C00
ENDCHAR
STARTCHAR uni1EE1
ENCODING 7905
SWIDTH 675 0
DWIDTH 8 0
BBX 8 10 1 0
BITMAP
1A
2C
00
7B
CF
CD
CE
CC
CC
78
ENDCHAR
STARTCHAR uni1EE2
ENCODING 7906
SWIDTH 855 0
DWIDTH 11 0
BBX 10 12 2 -3
BITMAP
3CC0
66C0
C340
C380
C300
C300
C300
6600
3C00
0000
1800
1800
ENDCHAR
STARTCHAR uni1EE3
ENCODING 7907
SWIDTH 675 0
DWIDTH 8 0
BBX 8 10 1 -3
BITMAP
7B
CF
CD
CE
CC
CC
78
00
30
30
ENDCHAR
STARTCHAR uni1EE4
ENCODING 7908
SWIDTH 783 0
DWIDTH 10 0
BBX 7 12 2 -3
BITMAP
C6
C6
C6
C6
C6
C6
C6
6C
38
00
18
18
ENDCHAR
STARTCHAR uni1EE5
ENCODING 7909
SWIDTH 693 0
DWIDTH 9 0
BBX 6 10 2 -3
BITMAP
CC
CC
CC
CC
CC
DC
6C
00
30
30
ENDCHAR
STARTCHAR uni1EE8
ENCODING 7912
SWIDTH 783 0
DWIDTH 10 0
BBX 9 12 2 0
BITMAP
0600
0C00
0000
C780
C780
C680
C700
C600
C600
C600
6C00
3800
ENDCHAR
STARTCHAR uni1EE9
ENCODING 7913
SWIDTH 693 0
DWIDTH 9 0
BBX 8 10 2 0
BITMAP
0C
18
00
CF
CF
CD
CE
CC
DC
6C
ENDCHAR
STARTCHAR uni1EEA
ENCODING 7914
SWIDTH 783 0
DWIDTH 10 0
BBX 9 12 2 0
BITMAP
1800
0C00
0000
C780
C780
C680
C700
C600
C600
C600
6C00
3800
ENDCHAR
STARTCHAR uni1EEB
ENCODING 7915
SWIDTH 693 0
DWIDTH 9 0
BBX 8 10 2 0
BITMAP
30
18
00
CF
CF
CD
CE
CC
DC
6C
ENDCHAR
STARTCHAR uni1EEE
ENCODING 7918
SWIDTH 783 0
DWIDTH 10 0
BBX 9 12 2 0
BITMAP
1A00
2C00
0000
C780
C780
C680
C700
C600
C600
C600
6C00
3800
ENDCHAR
STARTCHAR uni1EEF
ENCODING 7919
SWIDTH 693 0
DWIDTH 9 0
BBX 8 10 2 0
BITMAP
1A
2C
00
CF
CF
CD
CE
CC
DC
6C
ENDCHAR
STARTCHAR uni1EF0
ENCODING 7920
SWIDTH 783 0
DWIDTH 10 0
BBX 9 12 2 -3
BITMAP
C780
C780
C680
C700
C600
C600
C600
6C00
3800
0000
1800
1800
ENDCHAR
STARTCHAR uni1EF1
ENCODING 7921
SWIDTH 693 0
DWIDTH 9 0
BBX 8 10 2 -3
BITMAP
CF
CF
CD
CE
CC
DC
6C
00
18
18
ENDCHAR
STARTCHAR Ygrave
ENCODING 7922
SWIDTH 738 0
DWIDTH 9 0
BBX 8 12 1 0
BITMAP
30
18
00
C3
C3
62
66
34
18
18
18
18
ENDCHAR
STARTCHAR ygrave
ENCODING 7923
SWIDTH 645 0
DWIDTH 8 0
BBX 7 12 1 -2
BITMAP
60
30
00
C6
C6
C4
6C
68
38
30
60
60
ENDCHAR
STARTCHAR uni1EF4
ENCODING 7924
SWIDTH 738 0
DWIDTH 9 0
BBX 8 12 1 -3
BITMAP
C3
C3
62
66
34
18
18
18
18
00
18
18
ENDCHAR
STARTCHAR uni1EF5
ENCODING 7925
SWIDTH 645 0
DWIDTH 8 0
BBX 7 12 1 -5
BITMAP
C6
C6
C4
6C
68
38
30
60
60
00
30
30
ENDCHAR
STARTCHAR uni1EF8
ENCODING 7928
SWIDTH 738 0
DWIDTH 9 0
BBX 8 12 1 0
BITMAP
1A
2C
00
C3
C3
62
66
34
18
18
18
18
ENDCHAR
STARTCHAR uni1EF9
ENCODING 7929
SWIDTH 645 0
DWIDTH 8 0
BBX 7 12 1 -2
BITMAP
34
58
00
C6
C6
C4
6C
68
38
30
60
60
ENDCHAR
STARTCHAR uni2000
ENCODING 8192
SWIDTH 500 0
DWIDTH 6 0
BBX 1 1 0 0
BITMAP
00
ENDCHAR
STARTCHAR uni2001
ENCODING 8193
SWIDTH 1000 0
DWIDTH 13 0
BBX 1 1 0 0
BITMAP
00
ENDCHAR
STARTCHAR uni2002
ENCODING 8194
SWIDTH 500 0
DWIDTH 6 0
BBX 1 1 0 0
BITMAP
00
ENDCHAR
STARTCHAR uni2003
ENCODING 8195
SWIDTH 1000 0
DWIDTH 13 0
BBX 1 1 0 0
BITMAP
00
ENDCHAR
STARTCHAR uni2004
ENCODING 8196
SWIDTH 333 0
DWIDTH 4 0
BBX 1 1 0 0
BITMAP
00
ENDCHAR
STARTCHAR uni2005
ENCODING 8197
SWIDTH 250 0
DWIDTH 3 0
BBX 1 1 0 0
BITMAP
00
ENDCHAR
STARTCHAR uni2006
ENCODING 8198
SWIDTH 167 0
DWIDTH 2 0
BBX 1 1 0 0
BITMAP
00
ENDCHAR
STARTCHAR uni2007
ENCODING 8199
SWIDTH 687 0
DWIDTH 8 0
BBX 1 1 0 0
BITMAP
00
ENDCHAR
STARTCHAR uni2008
ENCODING 8200
SWIDTH 343 0
DWIDTH 3 0
BBX 1 1 0 0
BITMAP
00
ENDCHAR
STARTCHAR uni2009
ENCODING 8201
SWIDTH 200 0
DWIDTH 3 0
BBX 1 1 0 0
BITMAP
00
ENDCHAR
STARTCHAR uni200A
ENCODING 8202
SWIDTH 100 0
DWIDTH 1 0
BBX 1 1 0 0
BITMAP
00
ENDCHAR
STARTCHAR uni200B
ENCODING 8203
SWIDTH 0 0
DWIDTH 0 0
BBX 1 1 0 0
BITMAP
00
ENDCHAR
STARTCHAR uni2010
ENCODING 8208
SWIDTH 289 0
DWIDTH 4 0
BBX 3 1 1 4
BITMAP
E0
ENDCHAR
STARTCHAR uni2011
ENCODING 8209
SWIDTH 289 0
DWIDTH 4 0
BBX 3 1 1 4
BITMAP
E0
ENDCHAR
STARTCHAR figuredash
ENCODING 8210
SWIDTH 500 0
DWIDTH 6 0
BBX 4 1 1 4
BITMAP
F0
ENDCHAR
STARTCHAR endash
ENCODING 8211
SWIDTH 500 0
DWIDTH 6 0
BBX 4 1 1 4
BITMAP
F0
ENDCHAR
STARTCHAR emdash
ENCODING 8212
SWIDTH 1000 0
DWIDTH 13 0
BBX 11 1 1 4
BITMAP
FFE0
ENDCHAR
STARTCHAR afii00208
ENCODING 8213
SWIDTH 1000 0
DWIDTH 13 0
BBX 11 1 1 4
BITMAP
FFE0
ENDCHAR
STARTCHAR quoteleft
ENCODING 8216
SWIDTH 265 0
DWIDTH 3 0
BBX 2 4 1 6
BITMAP
40
80
C0
C0
ENDCHAR
STARTCHAR quoteright
ENCODING 8217
SWIDTH 265 0
DWIDTH 3 0
BBX 2 4 1 6
BITMAP
C0
C0
40
80
ENDCHAR
STARTCHAR quotesinglbase
ENCODING 8218
SWIDTH 265 0
DWIDTH 3 0
BBX 2 4 1 -2
BITMAP
C0
C0
40
80
ENDCHAR
STARTCHAR quotereversed
ENCODING 8219
SWIDTH 265 0
DWIDTH 3 0
BBX 2 4 1 6
BITMAP
C0
C0
80
40
ENDCHAR
STARTCHAR quotedblleft
ENCODING 8220
SWIDTH 530 0
DWIDTH 7 0
BBX 5 4 1 6
BITMAP
48
90
D8
D8
ENDCHAR
STARTCHAR quotedblright
ENCODING 8221
SWIDTH 530 0
DWIDTH 7 0
BBX 5 4 1 6
BITMAP
D8
D8
48
90
ENDCHAR
STARTCHAR quotedblbase
ENCODING 8222
SWIDTH 530 0
DWIDTH 7 0
BBX 5 4 1 -2
BITMAP
D8
D8
48
90
ENDCHAR
STARTCHAR uni201F
ENCODING 8223
SWIDTH 530 0
DWIDTH 7 0
BBX 5 4 1 6
BITMAP
D8
D8
90
48
ENDCHAR
STARTCHAR dagger
ENCODING 8224
SWIDTH 693 0
DWIDTH 8 0
BBX 6 10 1 -1
BITMAP
30
30
30
FC
30
30
30
30
30
30
ENDCHAR
STARTCHAR daggerdbl
ENCODING 8225
SWIDTH 693 0
DWIDTH 8 0
BBX 6 10 1 -1
BITMAP
30
30
30
FC
30
30
FC
30
30
30
ENDCHAR
STARTCHAR bullet
ENCODING 8226
SWIDTH 687 0
DWIDTH 8 0
BBX 4 4 2 2
BITMAP
F0
F0
F0
F0
ENDCHAR
STARTCHAR ellipsis
ENCODING 8230
SWIDTH 1000 0
DWIDTH 8 0
BBX 6 2 2 0
BITMAP
CC
CC
ENDCHAR
STARTCHAR perthousand
ENCODING 8240
SWIDTH 1313 0
DWIDTH 16 0
BBX 16 9 0 0
BITMAP
70C0
D980
DB00
7600
0400
0DCE
1B7B
337B
61CE
ENDCHAR
STARTCHAR guilsinglleft
ENCODING 8249
SWIDTH 361 0
DWIDTH 5 0
BBX 4 5 0 1
BITMAP
30
60
C0
60
30
ENDCHAR
STARTCHAR guilsinglright
ENCODING 8250
SWIDTH 361 0
DWIDTH 5 0
BBX 4 5 1 1
BITMAP
C0
60
30
60
C0
ENDCHAR
STARTCHAR fraction
ENCODING 8260
SWIDTH 93 0
DWIDTH 6 0
BBX 6 9 0 0
BITMAP
0C
0C
18
18
30
60
60
C0
C0
ENDCHAR
STARTCHAR oneinferior
ENCODING 8321
SWIDTH 536 0
DWIDTH 7 0
BBX 4 5 1 -2
BITMAP
30
F0
30
30
30
ENDCHAR
STARTCHAR twoinferior
ENCODING 8322
SWIDTH 536 0
DWIDTH 7 0
BBX 5 5 1 -2
BITMAP
F0
18
30
C0
F8
ENDCHAR
STARTCHAR threeinferior
ENCODING 8323
SWIDTH 536 0
DWIDTH 7 0
BBX 5 5 1 -2
BITMAP
F0
18
70
18
F0
ENDCHAR
STARTCHAR uni20A5
ENCODING 8357
SWIDTH 1006 0
DWIDTH 13 0
BBX 10 11 2 -2
BITMAP
0180
0180
DB80
EFC0
CEC0
CEC0
CCC0
DCC0
DCC0
3000
3000
ENDCHAR
STARTCHAR uni20A6
ENCODING 8358
SWIDTH 783 0
DWIDTH 10 0
BBX 7 9 2 0
BITMAP
E2
E2
B2
FE
BA
FE
8E
8E
86
ENDCHAR
STARTCHAR uni20A9
ENCODING 8361
SWIDTH 940 0
DWIDTH 12 0
BBX 10 9 1 0
BITMAP
C0C0
CCC0
CCC0
7F80
6D80
7F80
3300
3300
3300
ENDCHAR
STARTCHAR Euro
ENCODING 8364
SWIDTH 726 0
DWIDTH 9 0
BBX 9 9 0 0
BITMAP
0F00
1980
3000
FC00
3000
FC00
3000
1880
0F00
ENDCHAR
STARTCHAR uni20AD
ENCODING 8365
SWIDTH 753 0
DWIDTH 9 0
BBX 7 9 2 0
BITMAP
C6
CC
C8
D0
FE
D8
DC
CC
C6
ENDCHAR
STARTCHAR uni2103
ENCODING 8451
SWIDTH 955 0
DWIDTH 12 0
BBX 12 9 0 0
BITMAP
61E0
9330
6600
0600
0600
0600
0600
0310
01E0
ENDCHAR
STARTCHAR uni2109
ENCODING 8457
SWIDTH 831 0
DWIDTH 10 0
BBX 11 9 0 0
BITMAP
67E0
9600
6600
0600
07C0
0600
0600
0600
0600
ENDCHAR
STARTCHAR trademark
ENCODING 8482
SWIDTH 901 0
DWIDTH 11 0
BBX 8 4 2 5
BITMAP
FB
55
55
51
ENDCHAR
STARTCHAR uni212A
ENCODING 8490
SWIDTH 753 0
DWIDTH 9 0
BBX 7 9 2 0
BITMAP
C6
CC
C8
D0
F0
D8
DC
CC
C6
ENDCHAR
STARTCHAR uni212B
ENCODING 8491
SWIDTH 773 0
DWIDTH 9 0
BBX 7 11 1 0
BITMAP
18
2C
18
18
2C
2C
4C
7E
C6
C6
C6
ENDCHAR
STARTCHAR uni2132
ENCODING 8498
SWIDTH 602 0
DWIDTH 7 0
BBX 6 9 2 0
BITMAP
0C
0C
0C
0C
7C
0C
0C
0C
FC
ENDCHAR
STARTCHAR universal
ENCODING 8704
SWIDTH 773 0
DWIDTH 9 0
BBX 7 9 1 0
BITMAP
C6
C6
C6
7E
4C
2C
2C
18
18
ENDCHAR
STARTCHAR existential
ENCODING 8707
SWIDTH 645 0
DWIDTH 8 0
BBX 6 9 2 0
BITMAP
FC
0C
0C
0C
7C
0C
0C
0C
FC
ENDCHAR
STARTCHAR uni2204
ENCODING 8708
SWIDTH 645 0
DWIDTH 8 0
BBX 7 11 2 -1
BITMAP
06
FE
0C
0C
1C
7C
3C
6C
6C
FC
C0
ENDCHAR
STARTCHAR minus
ENCODING 8722
SWIDTH 687 0
DWIDTH 8 0
BBX 7 1 1 4
BITMAP
FE
ENDCHAR
STARTCHAR fraction
ENCODING 8725
SWIDTH 93 0
DWIDTH 6 0
BBX 6 9 0 0
BITMAP
0C
0C
18
18
30
60
60
C0
C0
ENDCHAR
STARTCHAR periodcentered
ENCODING 8729
SWIDTH 343 0
DWIDTH 8 0
BBX 2 2 3 3
BITMAP
C0
C0
ENDCHAR
STARTCHAR uni2236
ENCODING 8758
SWIDTH 343 0
DWIDTH 3 0
BBX 2 7 1 0
BITMAP
C0
C0
00
00
00
C0
C0
ENDCHAR
STARTCHAR uni2259
ENCODING 8793
SWIDTH 687 0
DWIDTH 8 0
BBX 6 6 1 3
BITMAP
30
58
00
FC
00
FC
ENDCHAR
STARTCHAR uni225A
ENCODING 8794
SWIDTH 687 0
DWIDTH 8 0
BBX 6 6 1 3
BITMAP
58
30
00
FC
00
FC
ENDCHAR
STARTCHAR notequal
ENCODING 8800
SWIDTH 687 0
DWIDTH 8 0
BBX 7 11 1 -1
BITMAP
06
06
0C
0C
FC
38
FC
60
60
C0
C0
ENDCHAR
STARTCHAR equivalence
ENCODING 8801
SWIDTH 687 0
DWIDTH 8 0
BBX 6 5 0 2
BITMAP
FC
00
FC
00
FC
ENDCHAR
STARTCHAR uni2262
ENCODING 8802
SWIDTH 687 0
DWIDTH 8 0
BBX 7 11 0 -1
BITMAP
06
06
0C
FC
18
FC
30
FC
60
C0
C0
ENDCHAR
STARTCHAR lessequal
ENCODING 8804
SWIDTH 687 0
DWIDTH 8 0
BBX 6 9 1 -1
BITMAP
0C
38
60
C0
60
38
0C
00
FC
ENDCHAR
STARTCHAR greaterequal
ENCODING 8805
SWIDTH 687 0
DWIDTH 8 0
BBX 6 9 1 -1
BITMAP
C0
70
18
0C
18
70
C0
00
FC
ENDCHAR
STARTCHAR uni226E
ENCODING 8814
SWIDTH 687 0
DWIDTH 8 0
BBX 7 11 1 -1
BITMAP
06
06
0C
3C
78
F8
70
78
6C
C0
C0
ENDCHAR
STARTCHAR uni226F
ENCODING 8815
SWIDTH 687 0
DWIDTH 8 0
BBX 7 11 1 -1
BITMAP
06
06
CC
7C
18
3C
38
70
E0
C0
C0
ENDCHAR
STARTCHAR uni2270
ENCODING 8816
SWIDTH 687 0
DWIDTH 8 0
BBX 7 11 1 -2
BITMAP
06
0E
3C
6C
D8
78
38
6C
60
FC
C0
ENDCHAR
STARTCHAR uni2271
ENCODING 8817
SWIDTH 687 0
DWIDTH 8 0
BBX 7 11 1 -2
BITMAP
06
C6
7C
1C
1C
38
70
E0
60
FC
C0
ENDCHAR
STARTCHAR fi
ENCODING -1
SWIDTH 711 0
DWIDTH 9 0
BBX 7 10 1 0
BITMAP
3E
66
60
FE
66
66
66
66
66
66
ENDCHAR
STARTCHAR fl
ENCODING -1
SWIDTH 711 0
DWIDTH 9 0
BBX 7 10 1 0
BITMAP
3E
66
66
FE
66
66
66
66
66
66
ENDCHAR
ENDFONT
